<?xml version="1.0" encoding="UTF-8"?>
<svg id="Capa_1" data-name="Capa 1" xmlns="http://www.w3.org/2000/svg" viewBox="0 0 1080 1080">
  <defs>
    <style>
      .cls-1 {
        fill: #9d7c6a;
      }
    </style>
  </defs>
  <g>
    <path class="cls-1" d="M540,715.48c-99.16,0-179.84-80.68-179.84-179.84s80.68-179.84,179.84-179.84,179.83,80.67,179.83,179.84-80.67,179.84-179.83,179.84ZM540,366.38c-93.34,0-169.27,75.93-169.27,169.27s75.93,169.27,169.27,169.27,169.27-75.93,169.27-169.27-75.93-169.27-169.27-169.27Z"/>
    <path class="cls-1" d="M540,846.95c-171.66,0-311.3-139.65-311.3-311.3h10.57c0,165.83,134.91,300.74,300.74,300.74s300.73-134.91,300.73-300.74h10.57c0,171.66-139.65,311.3-311.3,311.3Z"/>
  </g>
  <circle class="cls-1" cx="540" cy="262.32" r="16.7"/>
</svg>