<?xml version="1.0" encoding="UTF-8"?>
<svg id="Capa_1" data-name="Capa 1" xmlns="http://www.w3.org/2000/svg" viewBox="0 0 1080 1080">
  <defs>
    <style>
      .cls-1 {
        fill: #83482c;
      }
    </style>
  </defs>
  <path class="cls-1" d="M540,816.12c-119.63,0-216.96-97.33-216.96-216.96s97.33-216.96,216.96-216.96,216.96,97.33,216.96,216.96-97.33,216.96-216.96,216.96ZM540,392.77c-113.81,0-206.39,92.59-206.39,206.39s92.59,206.39,206.39,206.39,206.39-92.58,206.39-206.39-92.58-206.39-206.39-206.39Z"/>
  <path class="cls-1" d="M449.55,407.77c26.58,13.14,57.47,20.71,90.45,20.71s63.87-7.56,90.45-20.71c-27.43-12.99-58.09-20.28-90.45-20.28s-63.02,7.29-90.45,20.28Z"/>
  <circle class="cls-1" cx="540" cy="293.15" r="16.7"/>
</svg>