<?xml version="1.0" encoding="UTF-8"?>
<svg id="Capa_1" data-name="Capa 1" xmlns="http://www.w3.org/2000/svg" viewBox="0 0 1080 1080">
  <defs>
    <style>
      .cls-1 {
        fill: #553026;
      }
    </style>
  </defs>
  <path class="cls-1" d="M541.01,790.1c-137.97,0-250.22-112.24-250.22-250.21s112.25-250.22,250.22-250.22,250.21,112.25,250.21,250.22-112.24,250.21-250.21,250.21ZM541.01,300.24c-132.14,0-239.65,107.51-239.65,239.65s107.51,239.64,239.65,239.64,239.64-107.51,239.64-239.64-107.51-239.65-239.64-239.65Z"/>
  <path class="cls-1" d="M541.01,672.49c-105.54,0-191.41-85.87-191.41-191.41s85.87-191.41,191.41-191.41,191.41,85.86,191.41,191.41-85.87,191.41-191.41,191.41ZM541.01,300.24c-99.71,0-180.84,81.12-180.84,180.84s81.12,180.84,180.84,180.84,180.84-81.12,180.84-180.84-81.12-180.84-180.84-180.84Z"/>
  <path class="cls-1" d="M541.01,541.02c-69.29,0-125.67-56.37-125.67-125.67s56.38-125.67,125.67-125.67,125.67,56.38,125.67,125.67-56.38,125.67-125.67,125.67ZM541.01,300.24c-63.47,0-115.11,51.64-115.11,115.11s51.64,115.11,115.11,115.11,115.11-51.64,115.11-115.11-51.64-115.11-115.11-115.11Z"/>
  <circle class="cls-1" cx="541" cy="412.56" r="18.71"/>
</svg>