<?xml version="1.0" encoding="UTF-8"?>
<svg id="Capa_1" data-name="Capa 1" xmlns="http://www.w3.org/2000/svg" viewBox="0 0 1080 1080">
  <defs>
    <style>
      .cls-1 {
        fill: #f3f3e9;
      }

      .cls-2 {
        fill: #83482c;
      }
    </style>
  </defs>
  <rect class="cls-1" y="0" width="1080" height="1080"/>
  <g>
    <g>
      <path class="cls-2" d="M851.86,599.3c-1,1.09-2.3,3.54-2.3,7.17,0,2.36.76,4.44,2.84,4.44s2.24-2.93,2.45-5.93c.24-3.54.6-9.1,6.11-9.1,4.78,0,6.62,3.99,6.62,8.71,0,5.2-2.15,8.59-4.14,10.79l-2.36-2.06c1.45-1.6,3.57-4.38,3.57-8.8,0-2.93-1-5.26-3.23-5.26-2.48,0-2.99,2.27-3.27,5.71-.3,4.35-.67,9.31-5.44,9.31s-6.08-4.32-6.08-7.95c0-4.17,1.63-7.53,2.87-9.1l2.36,2.06Z"/>
      <path class="cls-2" d="M847.24,587.77v-18.9h3.02v7.74h16.72v3.39h-16.72v7.77h-3.02Z"/>
      <path class="cls-2" d="M847.24,541.69h12.73c4.87,0,7.62,3.75,7.62,8.77s-2.75,8.74-7.62,8.74h-12.73v-3.39h12.73c2.96,0,4.6-2.36,4.6-5.35s-1.63-5.38-4.6-5.38h-12.73v-3.39Z"/>
      <path class="cls-2" d="M866.98,529.5h-19.74v-9.46c0-3.57,1-5.56,2.63-7.26,1.81-1.75,4.35-2.69,7.23-2.69s5.65,1.03,7.47,2.9c1.51,1.69,2.42,3.48,2.42,7.04v9.46ZM863.96,520.19c0-2.51-.57-3.36-1.54-4.54-1.27-1.27-3.2-2.03-5.32-2.03s-3.9.67-5.17,1.9c-1.03,1.12-1.66,2.18-1.66,4.66v5.93h13.7v-5.93Z"/>
      <path class="cls-2" d="M866.98,499.11h-19.74v-3.39h19.74v3.39Z"/>
      <path class="cls-2" d="M846.63,473.81c0-6.23,4.66-11.19,10.43-11.19s10.52,4.96,10.52,11.19-4.66,11.1-10.52,11.1-10.43-4.87-10.43-11.1ZM864.56,473.81c0-4.26-3.39-7.62-7.5-7.62s-7.41,3.36-7.41,7.62,3.33,7.53,7.41,7.53,7.5-3.3,7.5-7.53Z"/>
    </g>
    <path class="cls-2" d="M821.54,612.46c-4.95-1.52-8.43-5.08-10.34-10.54l-42.3-132.23c-1.26-3.36-3.75-5.07-7.39-5.07h-16.8v1.01c4.36,0,8.42,2.46,12.09,7.3l-37.48,123.08c-1.16,4.37-3.31,8.15-6.4,11.25-2.15,2.3-4.43,3.91-6.82,4.83-.88.34-1.86.33-2.7-.09-1.11-.56-2.12-1.35-3-2.36h0c-1.75-2-2.64-4.35-2.64-6.98v-126.47c0-2.75,1.02-5.27,3.03-7.47,2-2.19,4.4-3.29,7.14-3.29v-1.01h-21.79s-1.25.1-1.25.1h0c-8.73.75-14.52,6.84-17.85,11.89-5.98,9.04-8.97,19.93-11.29,29.43-2.79,11.38-4.79,23.12-6.73,34.48l-.88,5.17c-1.96,11.48-3.99,23.35-7.03,34.76-1.77,6.63-3.59,11.96-5.73,16.78-.29.65-.61,1.31-.97,2.01l-42.21-127.56c-1.65-4.68-4.94-7.06-9.76-7.06h-16.6v.5h0v.5c1.37,0,2.87.32,4.46.95,1.59.64,3.11,1.54,4.51,2.69,1.41,1.16,2.71,2.52,3.87,4.06,1.13,1.5,1.96,3.09,2.47,4.72v118.1c0,2.03-.42,4.1-1.25,6.13-.84,2.06-1.94,3.95-3.28,5.6-1.33,1.65-2.94,2.97-4.78,3.92-1.2.62-2.47,1.04-3.81,1.25-.42.07-.86.06-1.28-.02-.46-.09-.94-.21-1.42-.38-4.95-1.52-8.43-5.08-10.34-10.54l-42.3-132.23c-1.26-3.36-3.75-5.07-7.39-5.07h-16.8v.5h0,0v.5c4.36,0,8.42,2.46,12.09,7.3l-37.48,123.08c-1.16,4.37-3.31,8.15-6.4,11.25-2.51,2.69-5.2,4.43-8.02,5.24-1.2.34-2.47.31-3.63-.14-1.57-.6-3.21-1.62-4.91-3.07-2.94-2.49-5.27-5.36-6.94-8.53v-119.43c0-3.93,1.55-7.61,4.61-10.92,3.05-3.3,6.58-4.98,10.5-4.98v-.5h0,0v-.5h-32.6v1.01c3.91,0,7.48,1.74,10.59,5.17,3.13,3.45,4.71,7.19,4.71,11.12v116.27l-72.97-128.38c-2.07-3.44-5.07-5.18-8.93-5.18h-16.6v1.01c2.63,0,5.48,1.23,8.48,3.64,2.99,2.42,5.29,5.25,6.83,8.42v118.65c0,6.63-2.91,11.66-8.64,14.97-1.49.83-2.96,1.38-4.39,1.67-.59.12-1.2.13-1.79,0-.39-.09-.8-.2-1.21-.33-4.95-1.52-8.43-5.08-10.34-10.54l-42.3-132.23c-1.26-3.36-3.75-5.07-7.39-5.07h-16.8v1.01c4.36,0,8.42,2.46,12.09,7.3l-37.48,123.08c-1.16,4.37-3.31,8.15-6.4,11.25-3.57,3.83-7.51,5.77-11.69,5.77v1.01h32.61v-.5h0v-.5c-1.99,0-4.09-.8-6.22-2.37-2.18-1.6-3.99-3.58-5.38-5.85-.75-1.5-1.13-3.09-1.13-4.71,0-1.02.13-2.11.37-3.21l6.5-21.45c1.39-4.19,3.79-8.18,6.78-11.24,1.84-1.88,3.53-3.11,5.33-3.88,2.21-.93,4.65-1.33,6.76-1.64,2.64-.38,5.36-.6,7.99-.82,6.25-.52,12.71-1.06,18.68-3.66,3.03-1.32,5.62-3.07,7.72-5.22l17.53,54.6c.25.88.38,1.7.38,2.43,0,1.33-.6,2.87-1.78,4.55-1.16,1.65-2.87,2.45-5.22,2.45v1.01h62.73v-.5h0,0v-.5c-4.04,0-7.63-1.87-10.68-5.55-3.07-3.71-4.63-7.66-4.63-11.73v-115.28l74.13,129.92c1.14,2.42,3.15,3.65,5.99,3.65h47.68v-1.01c-1.99,0-4.09-.8-6.22-2.37-2.18-1.6-3.99-3.58-5.38-5.85-.75-1.5-1.13-3.09-1.13-4.71,0-1.02.13-2.11.37-3.21l6.5-21.44c1.39-4.19,3.79-8.18,6.78-11.24,1.83-1.88,3.53-3.11,5.33-3.88,2.21-.93,4.65-1.33,6.76-1.64,2.64-.38,5.36-.6,7.99-.82,6.25-.52,12.71-1.06,18.68-3.66,3.03-1.32,5.62-3.07,7.72-5.22l17.53,54.6c.25.88.38,1.7.38,2.43,0,1.33-.6,2.87-1.78,4.55-1.16,1.65-2.87,2.45-5.22,2.45v.5h0,0v.5h32.6s29.93,0,29.93,0v-1.01c-2.02,0-3.96-.51-5.78-1.52-1.85-1.02-3.46-2.34-4.8-3.93-1.34-1.6-2.44-3.48-3.28-5.59-.83-2.1-1.25-4.2-1.25-6.24v-111.68l41.3,125.27c.03.09.1.3.18.54-.55.32-1.08.6-1.59.83-1.51.7-4.74,1.75-4.78,1.76l-.46.15.57,2.05.48-.13c6.5-1.8,11.51-5.22,14.87-10.18,3.59-5.29,5.72-11.58,7.6-17.57,3.71-11.84,5.89-24.3,7.82-35.3.54-3.09,1.07-6.17,1.59-9.26,1.62-9.48,3.29-19.27,5.35-28.83,2.28-10.54,4.94-21.66,10.17-31.62,4.65-8.84,10.44-13.86,17.22-14.9.48-.07,1-.13,1.61-.16l.2,135.96c0,2.75-1.02,5.19-3.02,7.26-2,2.06-4.41,3.11-7.15,3.11v.5h0v.5h25.91s32.61,0,32.61,0v-.5h0v-.5c-1.99,0-4.09-.8-6.22-2.37-2.18-1.6-3.99-3.58-5.38-5.85-.75-1.5-1.13-3.09-1.13-4.71,0-1.02.13-2.11.37-3.21l6.5-21.45c1.39-4.19,3.79-8.18,6.78-11.24,1.83-1.88,3.53-3.11,5.33-3.88,2.21-.93,4.65-1.33,6.76-1.64,2.64-.38,5.36-.6,7.99-.82,6.25-.52,12.71-1.06,18.68-3.66,3.03-1.32,5.62-3.07,7.72-5.22l17.53,54.6c.25.88.38,1.7.38,2.43,0,1.33-.6,2.87-1.78,4.55-1.16,1.65-2.87,2.45-5.22,2.45v1.01h32.6v-1.01c-.99,0-2.07-.19-3.21-.57ZM780.48,546.58c-5.44,6.39-14.63,8.01-21.1,8.67-1.58.16-3.17.29-4.76.42-3.25.26-6.61.54-9.89,1.1-4.73.82-8.34,2.63-11.39,5.71-.76.77-1.48,1.59-2.17,2.46l26.81-88.44,22.5,70.08ZM524.26,546.58c-5.44,6.39-14.63,8.01-21.1,8.67-1.58.16-3.17.29-4.76.42-3.25.26-6.61.54-9.89,1.1-4.73.82-8.34,2.63-11.39,5.71-.76.77-1.48,1.59-2.17,2.46l26.8-88.44,22.5,70.08ZM290.74,546.58c-5.44,6.39-14.63,8.01-21.1,8.67-1.58.16-3.17.29-4.76.42-3.25.26-6.61.54-9.89,1.1-4.73.82-8.34,2.63-11.39,5.71-.76.77-1.48,1.59-2.17,2.46l26.81-88.44,22.5,70.08Z"/>
  </g>
</svg>