<?xml version="1.0" encoding="UTF-8"?>
<svg id="Capa_1" data-name="Capa 1" xmlns="http://www.w3.org/2000/svg" viewBox="0 0 1080 268.1">
  <defs>
    <style>
      .cls-1 {
        fill: #9d7c6a;
      }
    </style>
  </defs>
  <g>
    <path class="cls-1" d="M1046.25,231.68c-1.61,1.76-3.72,5.73-3.72,11.6,0,3.82,1.22,7.2,4.6,7.2s3.62-4.75,3.96-9.59c.39-5.73.98-14.73,9.89-14.73,7.73,0,10.72,6.46,10.72,14.1,0,8.42-3.48,13.9-6.71,17.47l-3.82-3.33c2.35-2.59,5.78-7.1,5.78-14.24,0-4.75-1.62-8.52-5.24-8.52-4.01,0-4.85,3.67-5.29,9.25-.49,7.05-1.08,15.08-8.81,15.08s-9.84-7-9.84-12.87c0-6.76,2.64-12.19,4.65-14.73l3.82,3.33Z"/>
    <path class="cls-1" d="M1038.76,213.02v-30.59h4.9v12.53h27.07v5.48h-27.07v12.58h-4.9Z"/>
    <path class="cls-1" d="M1038.76,138.42h20.61c7.88,0,12.34,6.07,12.34,14.2s-4.45,14.15-12.34,14.15h-20.61v-5.48h20.61c4.8,0,7.44-3.82,7.44-8.66s-2.64-8.71-7.44-8.71h-20.61v-5.48Z"/>
    <path class="cls-1" d="M1070.73,118.68h-31.96v-15.32c0-5.78,1.62-9.01,4.26-11.75,2.94-2.84,7.05-4.36,11.7-4.36s9.15,1.66,12.09,4.7c2.45,2.74,3.92,5.63,3.92,11.4v15.32ZM1065.83,103.61c0-4.06-.93-5.43-2.5-7.34-2.06-2.06-5.19-3.28-8.62-3.28s-6.31,1.08-8.37,3.08c-1.66,1.81-2.69,3.52-2.69,7.54v9.59h22.17v-9.59Z"/>
    <path class="cls-1" d="M1070.73,69.48h-31.96v-5.48h31.96v5.48Z"/>
    <path class="cls-1" d="M1037.78,28.51c0-10.08,7.54-18.11,16.89-18.11s17.03,8.03,17.03,18.11-7.54,17.96-17.03,17.96-16.89-7.88-16.89-17.96ZM1066.81,28.51c0-6.9-5.48-12.34-12.14-12.34s-11.99,5.43-11.99,12.34,5.38,12.19,11.99,12.19,12.14-5.34,12.14-12.19Z"/>
  </g>
  <path class="cls-1" d="M997.16,252.99c-8.02-2.47-13.65-8.22-16.74-17.07l-68.48-214.07c-2.04-5.45-6.07-8.21-11.96-8.21h-27.19v1.63c7.06,0,13.64,3.98,19.57,11.82l-60.67,199.27c-1.87,7.08-5.35,13.2-10.37,18.21-3.48,3.73-7.18,6.33-11.04,7.82-1.42.55-3.02.53-4.37-.15-1.8-.91-3.43-2.18-4.85-3.82h0c-2.84-3.24-4.28-7.04-4.28-11.3V32.37c0-4.46,1.65-8.53,4.91-12.09,3.24-3.54,7.12-5.33,11.56-5.33v-1.63h-35.27s-2.02.16-2.02.16h0c-14.14,1.21-23.5,11.08-28.9,19.24-9.69,14.64-14.52,32.27-18.28,47.64-4.52,18.43-7.75,37.43-10.89,55.82l-1.43,8.37c-3.18,18.58-6.46,37.8-11.39,56.28-2.86,10.73-5.81,19.36-9.27,27.17-.47,1.05-.98,2.12-1.57,3.26l-68.33-206.52c-2.68-7.58-7.99-11.42-15.81-11.42h-26.87v.81h0v.82c2.22,0,4.65.52,7.21,1.54,2.58,1.03,5.04,2.5,7.31,4.35,2.29,1.87,4.39,4.09,6.26,6.58,1.82,2.43,3.17,5,4,7.63v191.2c0,3.29-.68,6.63-2.02,9.93-1.36,3.34-3.15,6.39-5.32,9.07-2.15,2.67-4.76,4.8-7.74,6.35-1.94,1-4,1.68-6.18,2.03-.69.11-1.4.1-2.08-.03-.75-.15-1.52-.35-2.31-.61-8.02-2.47-13.65-8.22-16.74-17.07L497.13,21.85c-2.04-5.45-6.07-8.21-11.96-8.21h-27.19v.81h0,0v.82c7.06,0,13.64,3.98,19.57,11.82l-60.67,199.27c-1.87,7.08-5.35,13.2-10.37,18.21-4.06,4.35-8.41,7.18-12.98,8.48-1.94.55-3.99.5-5.88-.23-2.54-.98-5.19-2.63-7.94-4.96-4.75-4.03-8.53-8.67-11.23-13.82V40.69c0-6.37,2.51-12.32,7.46-17.68,4.93-5.35,10.65-8.06,17-8.06v-.82h0,0v-.81h-52.79v1.63c6.34,0,12.11,2.82,17.15,8.37,5.06,5.58,7.63,11.64,7.63,18.01v188.24L246.79,21.71c-3.34-5.57-8.21-8.39-14.46-8.39h-26.87v1.63c4.26,0,8.88,1.98,13.72,5.9,4.84,3.92,8.56,8.5,11.06,13.63v192.09c0,10.73-4.7,18.88-13.98,24.24-2.41,1.34-4.79,2.24-7.11,2.71-.96.19-1.94.21-2.9,0-.64-.14-1.29-.32-1.96-.54-8.02-2.47-13.65-8.22-16.74-17.07L119.06,21.85c-2.04-5.45-6.07-8.21-11.96-8.21h-27.19v1.63c7.06,0,13.64,3.98,19.57,11.82l-60.67,199.27c-1.87,7.08-5.35,13.2-10.37,18.21-5.79,6.2-12.15,9.34-18.92,9.34v1.63h52.79v-.82h0v-.81c-3.23,0-6.62-1.29-10.08-3.84-3.52-2.58-6.46-5.79-8.71-9.47-1.22-2.43-1.83-5-1.83-7.63,0-1.65.21-3.42.61-5.2l10.52-34.72c2.24-6.78,6.14-13.25,10.97-18.2,2.97-3.05,5.72-5.04,8.64-6.28,3.57-1.51,7.52-2.16,10.95-2.65,4.27-.61,8.67-.98,12.93-1.33,10.12-.84,20.58-1.71,30.24-5.92,4.91-2.14,9.1-4.98,12.49-8.45l28.38,88.41c.4,1.42.61,2.75.61,3.94,0,2.16-.97,4.64-2.89,7.37-1.89,2.67-4.65,3.97-8.45,3.97v1.63h101.56v-.82h0,0v-.81c-6.54,0-12.36-3.02-17.29-8.98-4.97-6.01-7.49-12.4-7.49-19V39.29l120.02,210.35c1.84,3.92,5.1,5.91,9.69,5.91h77.2v-1.63c-3.23,0-6.62-1.29-10.08-3.84-3.52-2.58-6.46-5.79-8.71-9.47-1.22-2.43-1.83-5-1.83-7.63,0-1.65.21-3.42.61-5.2l10.52-34.72c2.24-6.78,6.14-13.25,10.97-18.2,2.97-3.05,5.71-5.04,8.64-6.28,3.57-1.51,7.52-2.16,10.94-2.65,4.27-.61,8.67-.98,12.94-1.33,10.12-.84,20.58-1.71,30.24-5.92,4.91-2.14,9.1-4.97,12.49-8.45l28.38,88.41c.4,1.42.61,2.75.61,3.94,0,2.16-.97,4.64-2.89,7.37-1.89,2.67-4.65,3.97-8.45,3.97v.81h0,0v.82h52.79s48.45,0,48.45,0v-1.63c-3.27,0-6.42-.83-9.37-2.46-2.99-1.65-5.6-3.79-7.77-6.37-2.17-2.59-3.96-5.63-5.3-9.05-1.34-3.4-2.02-6.8-2.02-10.1V45.13l66.87,202.81c.05.15.16.48.29.87-.9.52-1.74.96-2.57,1.34-2.45,1.13-7.68,2.83-7.73,2.85l-.74.24.92,3.32.79-.22c10.53-2.91,18.63-8.45,24.07-16.48,5.81-8.56,9.26-18.75,12.3-28.45,6-19.16,9.54-39.35,12.66-57.16.87-4.99,1.73-9.99,2.58-14.99,2.62-15.34,5.32-31.21,8.66-46.67,3.69-17.06,8-35.07,16.47-51.2,7.53-14.32,16.91-22.44,27.88-24.13.78-.12,1.62-.2,2.61-.26l.32,220.12c0,4.45-1.65,8.4-4.89,11.75-3.24,3.34-7.13,5.03-11.57,5.03v.81h0v.82h41.96s52.79,0,52.79,0v-.82h0v-.81c-3.23,0-6.62-1.29-10.08-3.84-3.52-2.58-6.46-5.79-8.71-9.47-1.22-2.43-1.83-5-1.83-7.63,0-1.65.21-3.42.61-5.2l10.52-34.72c2.24-6.78,6.14-13.25,10.97-18.2,2.97-3.05,5.71-5.04,8.64-6.28,3.57-1.51,7.52-2.16,10.94-2.65,4.27-.61,8.67-.98,12.94-1.33,10.12-.84,20.58-1.71,30.24-5.92,4.91-2.14,9.1-4.97,12.49-8.45l28.38,88.41c.4,1.42.61,2.75.61,3.94,0,2.16-.97,4.64-2.89,7.37-1.89,2.67-4.65,3.97-8.45,3.97v1.63h52.79v-1.63c-1.61,0-3.35-.31-5.2-.92ZM930.68,146.34c-8.8,10.35-23.69,12.97-34.16,14.04-2.56.26-5.14.47-7.71.68-5.26.43-10.7.87-16.01,1.78-7.65,1.32-13.51,4.26-18.44,9.24-1.23,1.24-2.4,2.57-3.51,3.98l43.4-143.19,36.43,113.47ZM515.86,146.34c-8.8,10.35-23.69,12.97-34.16,14.04-2.56.26-5.14.47-7.71.68-5.26.43-10.7.87-16.01,1.78-7.65,1.32-13.51,4.26-18.44,9.24-1.23,1.24-2.4,2.57-3.51,3.98l43.4-143.19,36.43,113.47ZM137.79,146.34c-8.8,10.35-23.69,12.97-34.16,14.04-2.56.26-5.14.47-7.71.68-5.26.43-10.7.87-16.01,1.78-7.65,1.32-13.51,4.26-18.44,9.24-1.23,1.24-2.4,2.57-3.51,3.98L101.36,32.87l36.43,113.47Z"/>
</svg>