<?xml version="1.0" encoding="UTF-8"?>
<svg id="Capa_1" data-name="Capa 1" xmlns="http://www.w3.org/2000/svg" viewBox="0 0 1080 454.68">
  <defs>
    <style>
      .cls-1 {
        fill: #83482c;
      }
    </style>
  </defs>
  <g>
    <path class="cls-1" d="M232.14,429.92v-33.88h18.68c4.77,0,7.73,1.35,9.81,3.58,1.82,1.97,2.7,4.31,2.7,6.8,0,2.91-1.19,5.45-3.11,7.32-2.02,1.92-4.88,3.17-9.39,3.17h-12.87v13.02h-5.81ZM237.95,401.23v10.48h12.87c1.45,0,3.48-.1,5.14-1.66.99-.93,1.56-2.23,1.56-3.58s-.52-2.49-1.4-3.42c-1.56-1.66-3.63-1.82-5.29-1.82h-12.87Z"/>
    <path class="cls-1" d="M281.43,429.92v-33.88h5.81v33.88h-5.81Z"/>
    <path class="cls-1" d="M315.16,396.04v28.69h20.81v5.19h-26.62v-33.88h5.81Z"/>
    <path class="cls-1" d="M364.4,396.04h5.29l15.72,33.88h-6.38l-4.1-9.13h-16.14l-4.05,9.13h-6.07l15.72-33.88ZM360.87,416.12h11.99l-5.81-13.13h-.31l-5.86,13.13Z"/>
    <path class="cls-1" d="M395.74,396.04h32.43v5.19h-13.28v28.69h-5.81v-28.69h-13.33v-5.19Z"/>
    <path class="cls-1" d="M464.81,414.82h-13.02v9.91h22.93v5.19h-28.74v-33.88h27.5v5.19h-21.69v8.41h13.02v5.19Z"/>
    <path class="cls-1" d="M517.37,403.98c-1.87-1.71-6.07-3.94-12.3-3.94-4.05,0-7.63,1.3-7.63,4.88s5.03,3.84,10.17,4.2c6.07.41,15.62,1.04,15.62,10.48,0,8.2-6.85,11.36-14.94,11.36-8.93,0-14.74-3.68-18.52-7.11l3.53-4.05c2.75,2.49,7.52,6.12,15.1,6.12,5.03,0,9.03-1.71,9.03-5.55,0-4.25-3.89-5.14-9.81-5.6-7.47-.52-15.98-1.14-15.98-9.34s7.42-10.43,13.65-10.43c7.16,0,12.92,2.8,15.62,4.93l-3.53,4.05Z"/>
    <path class="cls-1" d="M543.42,436.09h-5.29l17.8-40.05h5.29l-17.8,40.05Z"/>
    <path class="cls-1" d="M603.81,403.98c-1.87-1.71-6.07-3.94-12.3-3.94-4.05,0-7.63,1.3-7.63,4.88s5.03,3.84,10.17,4.2c6.07.41,15.62,1.04,15.62,10.48,0,8.2-6.85,11.36-14.94,11.36-8.93,0-14.74-3.68-18.52-7.11l3.53-4.05c2.75,2.49,7.52,6.12,15.1,6.12,5.03,0,9.03-1.71,9.03-5.55,0-4.25-3.89-5.14-9.81-5.6-7.47-.52-15.98-1.14-15.98-9.34s7.42-10.43,13.65-10.43c7.16,0,12.92,2.8,15.62,4.93l-3.53,4.05Z"/>
    <path class="cls-1" d="M624.1,396.04h32.43v5.19h-13.28v28.69h-5.81v-28.69h-13.33v-5.19Z"/>
    <path class="cls-1" d="M703.7,396.04v21.84c0,8.35-6.43,13.07-15.05,13.07s-15-4.72-15-13.07v-21.84h5.81v21.84c0,5.08,4.05,7.89,9.18,7.89s9.23-2.8,9.23-7.89v-21.84h5.81Z"/>
    <path class="cls-1" d="M725.13,429.92v-33.88h16.24c6.12,0,9.55,1.71,12.45,4.51,3.01,3.11,4.62,7.47,4.62,12.4s-1.76,9.7-4.98,12.81c-2.91,2.59-5.97,4.15-12.09,4.15h-16.24ZM741.11,424.73c4.31,0,5.76-.99,7.78-2.65,2.18-2.18,3.48-5.5,3.48-9.13s-1.14-6.69-3.27-8.87c-1.92-1.76-3.74-2.85-7.99-2.85h-10.17v23.5h10.17Z"/>
    <path class="cls-1" d="M777.8,429.92v-33.88h5.81v33.88h-5.81Z"/>
    <path class="cls-1" d="M821.74,395c10.69,0,19.2,7.99,19.2,17.9s-8.51,18.06-19.2,18.06-19.04-7.99-19.04-18.06,8.35-17.9,19.04-17.9ZM821.74,425.77c7.31,0,13.07-5.81,13.07-12.87s-5.76-12.71-13.07-12.71-12.92,5.71-12.92,12.71,5.66,12.87,12.92,12.87Z"/>
  </g>
  <path class="cls-1" d="M1057.68,266.78c-8.5-2.62-14.47-8.71-17.74-18.09l-72.58-226.9c-2.16-5.77-6.43-8.7-12.68-8.7h-28.82v1.73c7.48,0,14.46,4.22,20.75,12.53l-64.31,211.21c-1.99,7.5-5.67,13.99-10.99,19.3-3.69,3.95-7.61,6.71-11.7,8.29-1.5.58-3.2.57-4.64-.16-1.91-.97-3.63-2.31-5.14-4.04h0c-3.01-3.43-4.53-7.46-4.53-11.98V32.95c0-4.73,1.75-9.04,5.2-12.81,3.43-3.75,7.55-5.65,12.25-5.65v-1.73h-37.38s-2.14.17-2.14.17h0c-14.98,1.28-24.91,11.74-30.63,20.4-10.27,15.52-15.39,34.2-19.38,50.5-4.79,19.53-8.22,39.68-11.54,59.16l-1.52,8.87c-3.37,19.7-6.85,40.06-12.07,59.65-3.03,11.37-6.15,20.52-9.82,28.8-.49,1.11-1.04,2.25-1.66,3.46l-72.42-218.89c-2.84-8.03-8.47-12.11-16.75-12.11h-28.48v.86h0v.87c2.36,0,4.93.55,7.65,1.63,2.73,1.1,5.34,2.65,7.75,4.61,2.42,1.99,4.66,4.33,6.64,6.97,1.93,2.57,3.36,5.3,4.24,8.09v202.65c0,3.49-.72,7.03-2.14,10.53-1.44,3.54-3.34,6.77-5.64,9.62-2.28,2.83-5.04,5.09-8.2,6.73-2.05,1.06-4.24,1.78-6.55,2.15-.73.12-1.48.11-2.2-.03-.79-.16-1.61-.37-2.44-.65-8.5-2.62-14.47-8.71-17.74-18.09l-72.58-226.9c-2.16-5.77-6.43-8.7-12.68-8.7h-28.82v.86h0,0v.87c7.48,0,14.46,4.22,20.75,12.53l-64.31,211.21c-1.99,7.5-5.67,13.99-10.99,19.3-4.31,4.61-8.92,7.61-13.76,8.99-2.06.59-4.23.53-6.23-.24-2.69-1.04-5.5-2.79-8.42-5.26-5.04-4.27-9.04-9.19-11.9-14.64V41.77c0-6.75,2.66-13.05,7.91-18.74,5.23-5.67,11.29-8.54,18.01-8.54v-.87h0,0v-.86h-55.95v1.73c6.72,0,12.83,2.98,18.18,8.87,5.36,5.91,8.08,12.34,8.08,19.09v199.51L262.36,21.65c-3.55-5.9-8.7-8.9-15.32-8.9h-28.48v1.73c4.52,0,9.41,2.1,14.55,6.25,5.13,4.15,9.07,9.01,11.72,14.45v203.6c0,11.37-4.99,20.02-14.82,25.7-2.55,1.42-5.07,2.37-7.54,2.87-1.02.21-2.06.22-3.08,0-.68-.15-1.37-.34-2.08-.57-8.5-2.62-14.47-8.71-17.74-18.09L126.98,21.79c-2.16-5.77-6.43-8.7-12.68-8.7h-28.82v1.73c7.48,0,14.46,4.22,20.75,12.53L41.92,238.56c-1.99,7.5-5.67,13.99-10.99,19.3-6.13,6.57-12.88,9.9-20.05,9.9v1.73h55.95v-.87h0v-.86c-3.42,0-7.01-1.37-10.68-4.07-3.73-2.74-6.85-6.14-9.23-10.03-1.29-2.58-1.94-5.3-1.94-8.09,0-1.75.22-3.63.64-5.51l11.15-36.8c2.38-7.19,6.51-14.04,11.63-19.29,3.15-3.23,6.06-5.34,9.15-6.65,3.79-1.6,7.97-2.29,11.6-2.81,4.52-.65,9.19-1.04,13.71-1.41,10.73-.89,21.82-1.81,32.06-6.27,5.2-2.27,9.65-5.27,13.24-8.95l30.08,93.7c.43,1.51.64,2.91.64,4.17,0,2.29-1.03,4.92-3.06,7.81-2,2.83-4.93,4.21-8.96,4.21v1.73h107.64v-.87h0,0v-.86c-6.93,0-13.1-3.2-18.32-9.52-5.27-6.37-7.94-13.14-7.94-20.14V40.28l127.21,222.95c1.95,4.15,5.41,6.26,10.28,6.26h81.82v-1.73c-3.42,0-7.01-1.37-10.68-4.07-3.73-2.74-6.85-6.14-9.23-10.03-1.29-2.58-1.94-5.3-1.94-8.09,0-1.75.22-3.63.64-5.52l11.15-36.8c2.38-7.19,6.51-14.04,11.63-19.29,3.15-3.23,6.06-5.34,9.15-6.65,3.79-1.6,7.97-2.29,11.6-2.81,4.52-.65,9.19-1.04,13.71-1.41,10.72-.89,21.82-1.81,32.06-6.27,5.2-2.26,9.65-5.27,13.24-8.95l30.08,93.7c.43,1.51.64,2.91.64,4.17,0,2.29-1.03,4.92-3.06,7.81-2,2.83-4.93,4.21-8.96,4.21v.86h0,0v.87h55.95s51.35,0,51.35,0v-1.73c-3.46,0-6.8-.88-9.93-2.6-3.17-1.75-5.94-4.02-8.23-6.75-2.3-2.74-4.19-5.97-5.62-9.6-1.42-3.6-2.14-7.2-2.14-10.7V46.47l70.88,214.96c.05.16.17.51.31.92-.95.55-1.85,1.02-2.72,1.42-2.6,1.2-8.14,3-8.19,3.02l-.79.25.97,3.52.83-.23c11.16-3.08,19.75-8.96,25.52-17.47,6.15-9.07,9.81-19.87,13.04-30.16,6.36-20.31,10.11-41.7,13.42-60.58.93-5.29,1.83-10.59,2.73-15.89,2.77-16.26,5.64-33.08,9.18-49.47,3.91-18.09,8.47-37.18,17.46-54.27,7.98-15.18,17.92-23.78,29.55-25.57.83-.13,1.72-.22,2.77-.27l.34,233.31c0,4.71-1.74,8.9-5.18,12.45-3.44,3.54-7.56,5.33-12.27,5.33v.86h0v.87h44.47s55.95,0,55.95,0v-.87h0v-.86c-3.42,0-7.01-1.37-10.68-4.07-3.73-2.74-6.85-6.14-9.23-10.03-1.29-2.58-1.94-5.3-1.94-8.09,0-1.75.22-3.63.64-5.51l11.15-36.8c2.38-7.19,6.51-14.04,11.63-19.29,3.15-3.23,6.06-5.34,9.15-6.65,3.79-1.6,7.97-2.29,11.6-2.81,4.52-.65,9.19-1.04,13.71-1.41,10.72-.89,21.82-1.81,32.06-6.27,5.2-2.26,9.65-5.27,13.24-8.95l30.08,93.7c.43,1.51.64,2.91.64,4.17,0,2.29-1.03,4.92-3.06,7.81-2,2.83-4.93,4.21-8.96,4.21v1.73h55.95v-1.73c-1.71,0-3.55-.33-5.51-.98ZM987.21,153.74c-9.33,10.97-25.11,13.75-36.21,14.89-2.72.28-5.44.5-8.17.72-5.57.45-11.34.92-16.97,1.89-8.11,1.4-14.32,4.51-19.54,9.79-1.3,1.32-2.54,2.72-3.72,4.22l46-151.77,38.61,120.26ZM547.55,153.74c-9.33,10.97-25.11,13.75-36.21,14.89-2.72.28-5.44.5-8.17.72-5.57.45-11.34.92-16.97,1.89-8.11,1.4-14.32,4.51-19.54,9.79-1.3,1.32-2.54,2.72-3.72,4.21l46-151.77,38.61,120.26ZM146.83,153.74c-9.33,10.97-25.1,13.75-36.21,14.89-2.72.28-5.44.5-8.17.72-5.57.45-11.34.92-16.97,1.89-8.11,1.4-14.32,4.51-19.54,9.79-1.3,1.31-2.54,2.72-3.72,4.22L108.22,33.48l38.61,120.26Z"/>
</svg>