<?xml version="1.0" encoding="UTF-8"?>
<svg id="Capa_1" data-name="Capa 1" xmlns="http://www.w3.org/2000/svg" viewBox="0 0 1080 1080">
  <defs>
    <style>
      .cls-1 {
        fill: #cfc0ab;
      }

      .cls-2 {
        fill: #fff;
      }
    </style>
  </defs>
  <rect class="cls-1" width="1080" height="1080"/>
  <g>
    <g>
      <path class="cls-2" d="M363.14,660.92v-19.65h10.83c2.77,0,4.48.78,5.69,2.08,1.05,1.14,1.56,2.5,1.56,3.94,0,1.69-.69,3.16-1.81,4.24-1.17,1.11-2.83,1.84-5.45,1.84h-7.46v7.55h-3.37ZM366.51,644.27v6.08h7.46c.84,0,2.02-.06,2.98-.96.57-.54.9-1.29.9-2.08s-.3-1.44-.81-1.99c-.9-.96-2.11-1.05-3.07-1.05h-7.46Z"/>
      <path class="cls-2" d="M391.73,660.92v-19.65h3.37v19.65h-3.37Z"/>
      <path class="cls-2" d="M411.3,641.26v16.64h12.07v3.01h-15.44v-19.65h3.37Z"/>
      <path class="cls-2" d="M439.86,641.26h3.07l9.12,19.65h-3.7l-2.38-5.3h-9.36l-2.35,5.3h-3.52l9.12-19.65ZM437.81,652.91h6.95l-3.37-7.61h-.18l-3.4,7.61Z"/>
      <path class="cls-2" d="M458.04,641.26h18.81v3.01h-7.7v16.64h-3.37v-16.64h-7.73v-3.01Z"/>
      <path class="cls-2" d="M498.1,652.16h-7.55v5.75h13.3v3.01h-16.67v-19.65h15.95v3.01h-12.58v4.88h7.55v3.01Z"/>
      <path class="cls-2" d="M528.59,645.87c-1.08-.99-3.52-2.29-7.13-2.29-2.35,0-4.42.75-4.42,2.83s2.92,2.23,5.9,2.44c3.52.24,9.06.6,9.06,6.08,0,4.76-3.97,6.59-8.67,6.59-5.18,0-8.55-2.14-10.74-4.12l2.05-2.35c1.59,1.44,4.36,3.55,8.76,3.55,2.92,0,5.24-.99,5.24-3.22,0-2.47-2.26-2.98-5.69-3.25-4.33-.3-9.27-.66-9.27-5.42s4.3-6.05,7.92-6.05c4.15,0,7.49,1.62,9.06,2.86l-2.05,2.35Z"/>
      <path class="cls-2" d="M543.7,664.5h-3.07l10.32-23.23h3.07l-10.32,23.23Z"/>
      <path class="cls-2" d="M578.73,645.87c-1.08-.99-3.52-2.29-7.13-2.29-2.35,0-4.42.75-4.42,2.83s2.92,2.23,5.9,2.44c3.52.24,9.06.6,9.06,6.08,0,4.76-3.97,6.59-8.67,6.59-5.18,0-8.55-2.14-10.74-4.12l2.05-2.35c1.59,1.44,4.36,3.55,8.76,3.55,2.92,0,5.24-.99,5.24-3.22,0-2.47-2.26-2.98-5.69-3.25-4.33-.3-9.27-.66-9.27-5.42s4.3-6.05,7.92-6.05c4.15,0,7.49,1.62,9.06,2.86l-2.05,2.35Z"/>
      <path class="cls-2" d="M590.51,641.26h18.81v3.01h-7.7v16.64h-3.37v-16.64h-7.73v-3.01Z"/>
      <path class="cls-2" d="M636.68,641.26v12.67c0,4.85-3.73,7.58-8.73,7.58s-8.7-2.74-8.7-7.58v-12.67h3.37v12.67c0,2.95,2.35,4.57,5.33,4.57s5.36-1.62,5.36-4.57v-12.67h3.37Z"/>
      <path class="cls-2" d="M649.11,660.92v-19.65h9.42c3.55,0,5.54.99,7.22,2.62,1.75,1.81,2.68,4.33,2.68,7.19s-1.02,5.63-2.89,7.43c-1.69,1.51-3.46,2.41-7.01,2.41h-9.42ZM658.38,657.91c2.5,0,3.34-.57,4.51-1.54,1.26-1.26,2.02-3.19,2.02-5.3s-.66-3.88-1.9-5.15c-1.11-1.02-2.17-1.65-4.63-1.65h-5.9v13.63h5.9Z"/>
      <path class="cls-2" d="M679.66,660.92v-19.65h3.37v19.65h-3.37Z"/>
      <path class="cls-2" d="M705.15,640.66c6.2,0,11.14,4.63,11.14,10.38s-4.94,10.47-11.14,10.47-11.05-4.63-11.05-10.47,4.85-10.38,11.05-10.38ZM705.15,658.51c4.24,0,7.58-3.37,7.58-7.46s-3.34-7.37-7.58-7.37-7.49,3.31-7.49,7.37,3.28,7.46,7.49,7.46Z"/>
    </g>
    <path class="cls-2" d="M842.01,566.28c-4.93-1.52-8.39-5.05-10.29-10.49l-42.1-131.61c-1.26-3.35-3.73-5.05-7.35-5.05h-16.72v1c4.34,0,8.39,2.45,12.03,7.27l-37.3,122.51c-1.15,4.35-3.29,8.11-6.37,11.2-2.14,2.29-4.41,3.89-6.79,4.81-.87.34-1.86.33-2.69-.09-1.11-.56-2.11-1.34-2.98-2.35h0c-1.74-1.99-2.63-4.33-2.63-6.95v-125.89c0-2.74,1.01-5.24,3.02-7.43,1.99-2.18,4.38-3.28,7.1-3.28v-1h-21.68s-1.24.1-1.24.1h0c-8.69.74-14.45,6.81-17.77,11.83-5.95,9-8.92,19.84-11.24,29.29-2.78,11.33-4.77,23.01-6.69,34.32l-.88,5.15c-1.95,11.42-3.97,23.24-7,34.6-1.76,6.6-3.57,11.9-5.7,16.7-.29.64-.6,1.31-.96,2l-42.01-126.97c-1.65-4.66-4.91-7.02-9.72-7.02h-16.52v.5h0v.5c1.37,0,2.86.32,4.43.95,1.59.64,3.1,1.54,4.49,2.68,1.41,1.15,2.7,2.51,3.85,4.04,1.12,1.49,1.95,3.07,2.46,4.69v117.55c0,2.02-.42,4.08-1.24,6.11-.84,2.05-1.94,3.93-3.27,5.58-1.32,1.64-2.93,2.95-4.76,3.9-1.19.62-2.46,1.03-3.8,1.25-.42.07-.86.06-1.28-.02-.46-.09-.93-.21-1.42-.38-4.93-1.52-8.39-5.05-10.29-10.49l-42.1-131.61c-1.26-3.35-3.73-5.05-7.35-5.05h-16.72v.5h0,0v.5c4.34,0,8.39,2.45,12.03,7.27l-37.3,122.51c-1.15,4.35-3.29,8.11-6.37,11.2-2.5,2.67-5.17,4.41-7.98,5.21-1.19.34-2.45.31-3.61-.14-1.56-.6-3.19-1.62-4.88-3.05-2.92-2.48-5.24-5.33-6.9-8.49v-118.88c0-3.91,1.54-7.57,4.59-10.87,3.03-3.29,6.55-4.95,10.45-4.95v-.5h0,0v-.5h-32.45v1c3.9,0,7.44,1.73,10.55,5.15,3.11,3.43,4.69,7.16,4.69,11.07v115.73l-72.63-127.79c-2.06-3.42-5.05-5.16-8.89-5.16h-16.52v1c2.62,0,5.46,1.22,8.44,3.63,2.98,2.41,5.26,5.23,6.8,8.38v118.1c0,6.6-2.89,11.61-8.6,14.91-1.48.82-2.94,1.38-4.37,1.66-.59.12-1.2.13-1.79,0-.39-.09-.79-.19-1.21-.33-4.93-1.52-8.39-5.05-10.29-10.49l-42.1-131.61c-1.26-3.35-3.73-5.05-7.35-5.05h-16.72v1c4.34,0,8.39,2.45,12.03,7.27l-37.3,122.51c-1.15,4.35-3.29,8.11-6.37,11.2-3.56,3.81-7.47,5.74-11.63,5.74v1h32.46v-.5h0v-.5c-1.98,0-4.07-.79-6.19-2.36-2.17-1.59-3.97-3.56-5.36-5.82-.75-1.5-1.13-3.07-1.13-4.69,0-1.02.13-2.1.37-3.2l6.47-21.35c1.38-4.17,3.77-8.14,6.74-11.19,1.83-1.87,3.52-3.1,5.31-3.86,2.2-.93,4.62-1.33,6.73-1.63,2.62-.38,5.33-.6,7.95-.82,6.22-.52,12.66-1.05,18.59-3.64,3.02-1.31,5.6-3.06,7.68-5.19l17.45,54.35c.25.87.37,1.69.37,2.42,0,1.33-.6,2.85-1.78,4.53-1.16,1.64-2.86,2.44-5.2,2.44v1h62.44v-.5h0,0v-.5c-4.02,0-7.6-1.86-10.63-5.52-3.06-3.69-4.61-7.62-4.61-11.68v-114.75l73.79,129.32c1.13,2.41,3.14,3.63,5.96,3.63h47.46v-1c-1.98,0-4.07-.79-6.19-2.36-2.17-1.59-3.97-3.56-5.36-5.82-.75-1.5-1.13-3.07-1.13-4.69,0-1.02.13-2.1.37-3.2l6.47-21.34c1.38-4.17,3.77-8.14,6.75-11.19,1.83-1.87,3.51-3.1,5.31-3.86,2.2-.93,4.62-1.33,6.73-1.63,2.62-.38,5.33-.6,7.95-.82,6.22-.52,12.65-1.05,18.59-3.64,3.02-1.31,5.6-3.06,7.68-5.19l17.45,54.35c.25.87.37,1.69.37,2.42,0,1.33-.6,2.85-1.78,4.53-1.16,1.64-2.86,2.44-5.2,2.44v.5h0,0v.5h32.45s29.79,0,29.79,0v-1c-2.01,0-3.94-.51-5.76-1.51-1.84-1.01-3.44-2.33-4.78-3.92-1.34-1.59-2.43-3.46-3.26-5.57-.83-2.09-1.24-4.18-1.24-6.21v-111.16l41.11,124.69c.03.09.1.29.18.53-.55.32-1.07.59-1.58.83-1.51.7-4.72,1.74-4.75,1.75l-.46.15.56,2.04.48-.13c6.47-1.79,11.45-5.2,14.8-10.13,3.57-5.26,5.69-11.53,7.56-17.49,3.69-11.78,5.87-24.19,7.78-35.14.54-3.07,1.06-6.14,1.59-9.22,1.61-9.43,3.27-19.19,5.32-28.69,2.27-10.49,4.92-21.56,10.13-31.48,4.63-8.8,10.39-13.79,17.14-14.83.48-.07,1-.13,1.6-.16l.2,135.33c0,2.73-1.01,5.16-3.01,7.22-1.99,2.05-4.39,3.09-7.11,3.09v.5h0v.5h25.79s32.46,0,32.46,0v-.5h0v-.5c-1.98,0-4.07-.79-6.19-2.36-2.17-1.59-3.97-3.56-5.36-5.82-.75-1.5-1.13-3.07-1.13-4.69,0-1.02.13-2.1.37-3.2l6.47-21.35c1.38-4.17,3.77-8.14,6.75-11.19,1.83-1.87,3.51-3.1,5.31-3.86,2.2-.93,4.62-1.33,6.73-1.63,2.62-.38,5.33-.6,7.95-.82,6.22-.52,12.65-1.05,18.59-3.64,3.02-1.31,5.6-3.06,7.68-5.19l17.45,54.35c.25.87.37,1.69.37,2.42,0,1.33-.6,2.85-1.78,4.53-1.16,1.64-2.86,2.44-5.2,2.44v1h32.45v-1c-.99,0-2.06-.19-3.2-.57ZM801.13,500.72c-5.41,6.36-14.56,7.98-21,8.63-1.58.16-3.16.29-4.74.42-3.23.26-6.58.53-9.84,1.1-4.7.81-8.31,2.62-11.34,5.68-.75.76-1.48,1.58-2.16,2.45l26.68-88.04,22.4,69.76ZM546.1,500.72c-5.41,6.36-14.56,7.98-21,8.63-1.58.16-3.16.29-4.74.42-3.23.26-6.58.53-9.84,1.1-4.7.81-8.31,2.62-11.34,5.68-.75.76-1.48,1.58-2.16,2.44l26.68-88.03,22.4,69.76ZM313.66,500.72c-5.41,6.36-14.56,7.98-21,8.63-1.58.16-3.16.29-4.74.42-3.23.26-6.58.53-9.84,1.1-4.7.81-8.31,2.62-11.34,5.68-.75.76-1.48,1.58-2.16,2.45l26.68-88.03,22.4,69.76Z"/>
  </g>
</svg>