<?xml version="1.0" encoding="UTF-8"?>
<svg id="Capa_1" data-name="Capa 1" xmlns="http://www.w3.org/2000/svg" viewBox="0 0 1080 1080">
  <defs>
    <style>
      .cls-1 {
        fill: #e9e7db;
      }

      .cls-2 {
        fill: #83482c;
      }
    </style>
  </defs>
  <rect class="cls-1" x="0" y="0" width="1080" height="1080"/>
  <g>
    <g>
      <path class="cls-2" d="M872.45,619.44h-18.12v-9.99c0-2.55.72-4.14,1.92-5.25,1.05-.97,2.3-1.44,3.64-1.44,1.55,0,2.91.64,3.91,1.67,1.03,1.08,1.69,2.61,1.69,5.02v6.88h6.97v3.11ZM857.1,616.33h5.61v-6.88c0-.78-.06-1.86-.89-2.75-.5-.53-1.19-.83-1.92-.83s-1.33.28-1.83.75c-.89.83-.97,1.94-.97,2.83v6.88Z"/>
      <path class="cls-2" d="M872.45,593.35h-18.12v-3.11h18.12v3.11Z"/>
      <path class="cls-2" d="M854.33,575.58h15.35v-11.13h2.78v14.24h-18.12v-3.11Z"/>
      <path class="cls-2" d="M854.33,549.52v-2.83l18.12-8.41v3.41l-4.88,2.19v8.63s4.89,2.16,4.89,2.16v3.25l-18.12-8.41ZM865.07,551.41v-6.41s-7.02,3.11-7.02,3.11v.17l7.02,3.14Z"/>
      <path class="cls-2" d="M854.33,533.03v-17.35h2.78v7.11h15.35v3.11h-15.35v7.13h-2.78Z"/>
      <path class="cls-2" d="M864.38,496.37v6.97h5.3v-12.27h2.78v15.38h-18.12v-14.71h2.78v11.6h4.5v-6.97h2.78Z"/>
      <path class="cls-2" d="M858.58,468.53c-.92,1-2.11,3.25-2.11,6.58,0,2.16.69,4.08,2.61,4.08s2.05-2.69,2.25-5.44c.22-3.25.56-8.35,5.61-8.35,4.39,0,6.08,3.66,6.08,7.99,0,4.77-1.97,7.88-3.8,9.91l-2.17-1.89c1.33-1.47,3.28-4.02,3.28-8.08,0-2.69-.92-4.83-2.97-4.83-2.28,0-2.75,2.08-3,5.25-.28,4-.61,8.55-5,8.55s-5.58-3.97-5.58-7.3c0-3.83,1.5-6.91,2.64-8.35l2.16,1.89Z"/>
    </g>
    <path class="cls-2" d="M828.3,618.28c-5.05-1.55-8.59-5.17-10.53-10.74l-43.08-134.67c-1.28-3.43-3.82-5.16-7.52-5.16h-17.11v1.03c4.44,0,8.58,2.5,12.31,7.44l-38.17,125.36c-1.18,4.45-3.37,8.3-6.52,11.46-2.19,2.35-4.52,3.98-6.95,4.92-.89.34-1.9.34-2.75-.09-1.13-.57-2.16-1.37-3.05-2.4h0c-1.79-2.04-2.69-4.43-2.69-7.11v-128.81c0-2.81,1.04-5.36,3.09-7.6,2.04-2.23,4.48-3.36,7.27-3.36v-1.03h-22.19s-1.27.1-1.27.1h0c-8.89.76-14.78,6.97-18.18,12.11-6.09,9.21-9.13,20.3-11.5,29.97-2.84,11.59-4.88,23.55-6.85,35.11l-.9,5.27c-2,11.69-4.06,23.78-7.16,35.41-1.8,6.75-3.65,12.18-5.83,17.09-.29.66-.62,1.34-.99,2.05l-42.99-129.92c-1.68-4.77-5.03-7.19-9.94-7.19h-16.91v.51h0v.51c1.4,0,2.93.33,4.54.97,1.62.65,3.17,1.57,4.6,2.74,1.44,1.18,2.76,2.57,3.94,4.14,1.15,1.53,1.99,3.14,2.51,4.8v120.28c0,2.07-.43,4.17-1.27,6.25-.85,2.1-1.98,4.02-3.35,5.71-1.36,1.68-2.99,3.02-4.87,3.99-1.22.63-2.52,1.06-3.89,1.28-.43.07-.88.07-1.31-.02-.47-.09-.95-.22-1.45-.38-5.05-1.55-8.59-5.17-10.53-10.74l-43.08-134.67c-1.28-3.43-3.82-5.16-7.52-5.16h-17.11v.51h0,0v.51c4.44,0,8.58,2.5,12.31,7.44l-38.17,125.36c-1.18,4.45-3.37,8.3-6.52,11.46-2.56,2.74-5.29,4.51-8.17,5.34-1.22.35-2.51.31-3.7-.14-1.6-.61-3.27-1.65-5-3.12-2.99-2.53-5.37-5.46-7.06-8.69v-121.64c0-4,1.58-7.75,4.69-11.12,3.1-3.36,6.7-5.07,10.69-5.07v-.51h0,0v-.51h-33.21v1.03c3.99,0,7.62,1.77,10.79,5.27,3.18,3.51,4.8,7.32,4.8,11.33v118.42l-74.32-130.76c-2.1-3.5-5.16-5.28-9.09-5.28h-16.91v1.03c2.68,0,5.58,1.25,8.63,3.71,3.05,2.46,5.38,5.35,6.95,8.57v120.84c0,6.75-2.96,11.88-8.8,15.25-1.51.84-3.01,1.41-4.47,1.7-.61.12-1.22.13-1.83,0-.4-.09-.81-.2-1.23-.34-5.05-1.55-8.59-5.17-10.53-10.74l-43.08-134.67c-1.28-3.43-3.82-5.16-7.52-5.16h-17.11v1.03c4.44,0,8.58,2.5,12.31,7.44l-38.17,125.36c-1.18,4.45-3.37,8.3-6.52,11.46-3.64,3.9-7.64,5.87-11.9,5.87v1.03h33.21v-.51h0v-.51c-2.03,0-4.16-.81-6.34-2.42-2.22-1.63-4.07-3.64-5.48-5.95-.77-1.53-1.15-3.15-1.15-4.8,0-1.04.13-2.15.38-3.27l6.62-21.84c1.41-4.27,3.86-8.33,6.9-11.45,1.87-1.92,3.6-3.17,5.43-3.95,2.25-.95,4.73-1.36,6.89-1.67,2.69-.38,5.46-.62,8.14-.84,6.37-.53,12.95-1.08,19.03-3.72,3.09-1.34,5.73-3.13,7.86-5.31l17.85,55.61c.25.89.38,1.73.38,2.48,0,1.36-.61,2.92-1.82,4.64-1.19,1.68-2.93,2.5-5.32,2.5v1.03h63.89v-.51h0,0v-.51c-4.12,0-7.77-1.9-10.88-5.65-3.13-3.78-4.71-7.8-4.71-11.95v-117.42l75.5,132.33c1.16,2.47,3.21,3.72,6.1,3.72h48.56v-1.03c-2.03,0-4.16-.81-6.34-2.42-2.22-1.63-4.07-3.64-5.48-5.95-.77-1.53-1.15-3.15-1.15-4.8,0-1.04.13-2.15.38-3.27l6.62-21.84c1.41-4.27,3.86-8.33,6.9-11.45,1.87-1.92,3.6-3.17,5.43-3.95,2.25-.95,4.73-1.36,6.88-1.67,2.69-.38,5.46-.62,8.14-.84,6.37-.53,12.95-1.08,19.03-3.72,3.09-1.34,5.73-3.13,7.86-5.31l17.86,55.61c.25.89.38,1.73.38,2.48,0,1.36-.61,2.92-1.82,4.64-1.19,1.68-2.93,2.5-5.32,2.5v.51h0,0v.51h33.21s30.48,0,30.48,0v-1.03c-2.05,0-4.04-.52-5.89-1.55-1.88-1.04-3.52-2.38-4.89-4.01-1.37-1.63-2.49-3.54-3.34-5.7-.84-2.14-1.27-4.28-1.27-6.35v-113.74l42.07,127.58c.03.09.1.3.18.55-.57.33-1.1.61-1.62.85-1.54.71-4.83,1.78-4.86,1.79l-.47.15.58,2.09.49-.14c6.62-1.83,11.72-5.32,15.14-10.37,3.65-5.38,5.83-11.79,7.74-17.9,3.78-12.05,6-24.75,7.96-35.96.55-3.14,1.09-6.29,1.62-9.43,1.65-9.65,3.35-19.63,5.45-29.36,2.32-10.73,5.03-22.06,10.36-32.21,4.74-9.01,10.63-14.11,17.54-15.18.49-.08,1.02-.13,1.64-.16l.2,138.47c0,2.8-1.04,5.28-3.07,7.39-2.04,2.1-4.49,3.17-7.28,3.17v.51h0v.51h26.39s33.21,0,33.21,0v-.51h0v-.51c-2.03,0-4.16-.81-6.34-2.42-2.22-1.63-4.07-3.64-5.48-5.95-.77-1.53-1.15-3.15-1.15-4.8,0-1.04.13-2.15.38-3.27l6.62-21.84c1.41-4.27,3.86-8.33,6.9-11.45,1.87-1.92,3.6-3.17,5.43-3.95,2.25-.95,4.73-1.36,6.88-1.67,2.69-.38,5.46-.62,8.14-.84,6.37-.53,12.95-1.08,19.03-3.72,3.09-1.34,5.73-3.13,7.86-5.31l17.85,55.61c.25.89.38,1.73.38,2.48,0,1.36-.61,2.92-1.82,4.64-1.19,1.68-2.93,2.5-5.32,2.5v1.03h33.21v-1.03c-1.01,0-2.11-.19-3.27-.58ZM786.48,551.18c-5.54,6.51-14.9,8.16-21.49,8.84-1.61.17-3.23.3-4.85.43-3.31.27-6.73.55-10.07,1.12-4.81.83-8.5,2.68-11.6,5.81-.77.78-1.51,1.62-2.21,2.5l27.3-90.08,22.92,71.38ZM525.52,551.18c-5.54,6.51-14.9,8.16-21.49,8.84-1.61.17-3.23.3-4.85.43-3.31.27-6.73.55-10.07,1.12-4.81.83-8.5,2.68-11.6,5.81-.77.78-1.51,1.62-2.21,2.5l27.3-90.08,22.92,71.38ZM287.68,551.18c-5.54,6.51-14.9,8.16-21.49,8.84-1.61.17-3.23.3-4.85.43-3.31.27-6.73.55-10.07,1.12-4.81.83-8.5,2.68-11.6,5.81-.77.78-1.51,1.62-2.21,2.5l27.3-90.08,22.92,71.38Z"/>
  </g>
</svg>