<?xml version="1.0" encoding="UTF-8"?>
<svg id="Capa_1" data-name="Capa 1" xmlns="http://www.w3.org/2000/svg" viewBox="0 0 1080 268.1">
  <defs>
    <style>
      .cls-1 {
        fill: #e9e7db;
      }
    </style>
  </defs>
  <g>
    <path class="cls-1" d="M1065.17,253.55h-28.73v-15.84c0-4.05,1.14-6.56,3.04-8.32,1.67-1.54,3.65-2.29,5.76-2.29,2.46,0,4.62,1.01,6.2,2.64,1.63,1.72,2.68,4.14,2.68,7.96v10.91h11.04v4.93ZM1040.84,248.62h8.89v-10.91c0-1.23-.09-2.95-1.41-4.36-.79-.84-1.89-1.32-3.04-1.32s-2.11.44-2.9,1.19c-1.41,1.32-1.54,3.08-1.54,4.49v10.91Z"/>
    <path class="cls-1" d="M1065.17,212.19h-28.73v-4.93h28.73v4.93Z"/>
    <path class="cls-1" d="M1036.44,184.03h24.33v-17.64h4.4v22.57h-28.73v-4.93Z"/>
    <path class="cls-1" d="M1036.44,142.71v-4.49l28.73-13.33v5.41l-7.74,3.48v13.68s7.74,3.43,7.74,3.43v5.15l-28.73-13.33ZM1053.47,145.71v-10.16s-11.13,4.93-11.13,4.93v.26l11.13,4.97Z"/>
    <path class="cls-1" d="M1036.44,116.58v-27.5h4.4v11.26h24.33v4.93h-24.33v11.31h-4.4Z"/>
    <path class="cls-1" d="M1052.37,58.46v11.04h8.4v-19.45h4.4v24.38h-28.73v-23.32h4.4v18.39h7.13v-11.04h4.4Z"/>
    <path class="cls-1" d="M1043.17,14.33c-1.45,1.58-3.34,5.15-3.34,10.43,0,3.43,1.1,6.47,4.14,6.47s3.26-4.27,3.56-8.62c.35-5.15.88-13.24,8.89-13.24,6.95,0,9.64,5.81,9.64,12.67,0,7.57-3.12,12.5-6.03,15.71l-3.43-2.99c2.11-2.33,5.19-6.38,5.19-12.8,0-4.27-1.45-7.66-4.71-7.66-3.61,0-4.36,3.3-4.75,8.32-.44,6.34-.97,13.55-7.92,13.55s-8.84-6.29-8.84-11.57c0-6.07,2.38-10.96,4.18-13.24l3.43,2.99Z"/>
  </g>
  <path class="cls-1" d="M995.19,251.71c-8-2.46-13.62-8.19-16.69-17.02l-68.29-213.48c-2.04-5.43-6.05-8.18-11.93-8.18h-27.12v1.63c7.04,0,13.6,3.97,19.52,11.79l-60.51,198.72c-1.87,7.06-5.34,13.16-10.34,18.16-3.47,3.72-7.16,6.32-11.01,7.8-1.41.54-3.01.53-4.36-.15-1.8-.91-3.42-2.18-4.84-3.81h0c-2.83-3.23-4.26-7.02-4.26-11.27V31.7c0-4.45,1.65-8.5,4.89-12.05,3.23-3.53,7.1-5.32,11.52-5.32v-1.63h-35.17s-2.01.16-2.01.16h0c-14.1,1.21-23.44,11.05-28.82,19.19-9.66,14.6-14.48,32.18-18.23,47.51-4.5,18.38-7.73,37.33-10.86,55.66l-1.43,8.35c-3.17,18.53-6.44,37.69-11.36,56.13-2.85,10.7-5.79,19.31-9.24,27.09-.46,1.04-.98,2.12-1.56,3.25l-68.14-205.95c-2.67-7.56-7.97-11.39-15.76-11.39h-26.8v.81h0v.81c2.22,0,4.64.52,7.19,1.54,2.57,1.03,5.02,2.49,7.29,4.34,2.28,1.87,4.38,4.07,6.24,6.56,1.82,2.42,3.16,4.98,3.99,7.61v190.67c0,3.28-.68,6.61-2.01,9.9-1.35,3.33-3.14,6.37-5.3,9.05-2.15,2.66-4.75,4.79-7.72,6.33-1.93,1-3.99,1.67-6.16,2.02-.69.11-1.39.1-2.07-.03-.75-.15-1.51-.35-2.3-.61-8-2.46-13.62-8.19-16.69-17.02L496.53,21.2c-2.04-5.43-6.05-8.18-11.93-8.18h-27.12v.81h0,0v.81c7.04,0,13.6,3.97,19.52,11.79l-60.51,198.72c-1.87,7.06-5.34,13.16-10.34,18.16-4.05,4.34-8.39,7.16-12.95,8.46-1.94.55-3.98.5-5.86-.23-2.53-.97-5.18-2.62-7.92-4.95-4.74-4.02-8.51-8.65-11.2-13.78V39.99c0-6.35,2.5-12.28,7.44-17.64,4.92-5.33,10.62-8.03,16.95-8.03v-.81h0,0v-.81h-52.64v1.63c6.32,0,12.07,2.81,17.1,8.35,5.05,5.56,7.6,11.61,7.6,17.96v187.72L246.88,21.07c-3.34-5.55-8.19-8.37-14.42-8.37h-26.8v1.63c4.25,0,8.85,1.98,13.69,5.88,4.83,3.91,8.54,8.48,11.02,13.59v191.57c0,10.7-4.69,18.83-13.95,24.18-2.4,1.33-4.77,2.23-7.09,2.7-.96.19-1.94.21-2.9,0-.64-.14-1.29-.32-1.96-.54-8-2.46-13.62-8.19-16.69-17.02L119.5,21.2c-2.04-5.43-6.05-8.18-11.93-8.18h-27.12v1.63c7.04,0,13.6,3.97,19.52,11.79l-60.51,198.72c-1.87,7.06-5.34,13.16-10.34,18.16-5.77,6.18-12.12,9.31-18.87,9.31v1.63h52.64v-.81h0v-.81c-3.22,0-6.6-1.29-10.05-3.83-3.51-2.58-6.45-5.77-8.69-9.44-1.21-2.43-1.83-4.99-1.83-7.61,0-1.65.21-3.41.6-5.19l10.49-34.62c2.24-6.76,6.12-13.21,10.94-18.15,2.97-3.04,5.7-5.03,8.61-6.26,3.56-1.51,7.5-2.16,10.92-2.64,4.26-.61,8.65-.98,12.9-1.33,10.09-.84,20.53-1.7,30.16-5.9,4.9-2.13,9.08-4.96,12.46-8.42l28.3,88.16c.4,1.42.61,2.74.61,3.93,0,2.16-.97,4.63-2.88,7.35-1.88,2.67-4.64,3.96-8.43,3.96v1.63h101.28v-.81h0,0v-.81c-6.52,0-12.32-3.01-17.24-8.96-4.96-5.99-7.47-12.36-7.47-18.95V38.59l119.69,209.77c1.83,3.91,5.09,5.89,9.67,5.89h76.98v-1.63c-3.22,0-6.6-1.29-10.05-3.83-3.51-2.58-6.45-5.77-8.69-9.44-1.21-2.43-1.83-4.99-1.83-7.61,0-1.65.21-3.41.6-5.19l10.49-34.62c2.24-6.76,6.12-13.21,10.94-18.15,2.96-3.04,5.7-5.03,8.61-6.26,3.56-1.51,7.5-2.16,10.91-2.64,4.26-.61,8.65-.98,12.9-1.33,10.09-.84,20.53-1.7,30.16-5.9,4.89-2.13,9.08-4.96,12.46-8.42l28.31,88.16c.4,1.42.61,2.74.61,3.93,0,2.16-.97,4.63-2.88,7.35-1.88,2.67-4.64,3.96-8.43,3.96v.81h0,0v.81h52.64s48.32,0,48.32,0v-1.63c-3.26,0-6.4-.82-9.34-2.45-2.98-1.64-5.59-3.78-7.75-6.35-2.17-2.58-3.95-5.62-5.29-9.03-1.34-3.39-2.02-6.78-2.02-10.07V44.42l66.69,202.25c.05.15.16.48.29.86-.9.52-1.74.96-2.56,1.34-2.45,1.13-7.66,2.83-7.71,2.84l-.74.24.91,3.31.78-.22c10.5-2.9,18.58-8.43,24.01-16.43,5.79-8.53,9.23-18.7,12.27-28.37,5.99-19.11,9.51-39.24,12.62-57,.87-4.98,1.72-9.97,2.57-14.95,2.61-15.3,5.31-31.12,8.63-46.54,3.68-17.02,7.97-34.98,16.43-51.06,7.51-14.28,16.86-22.37,27.8-24.06.78-.12,1.62-.2,2.6-.26l.32,219.52c0,4.43-1.64,8.38-4.87,11.72-3.23,3.33-7.11,5.02-11.54,5.02v.81h0v.81h41.84s52.64,0,52.64,0v-.81h0v-.81c-3.22,0-6.6-1.29-10.05-3.83-3.51-2.58-6.45-5.77-8.69-9.44-1.21-2.43-1.83-4.99-1.83-7.61,0-1.65.21-3.41.6-5.19l10.49-34.62c2.24-6.76,6.12-13.21,10.94-18.15,2.96-3.04,5.7-5.03,8.61-6.26,3.56-1.51,7.5-2.16,10.91-2.64,4.26-.61,8.65-.98,12.9-1.33,10.09-.84,20.53-1.7,30.16-5.9,4.89-2.13,9.08-4.96,12.46-8.42l28.3,88.16c.4,1.42.61,2.74.61,3.93,0,2.16-.97,4.63-2.88,7.35-1.88,2.67-4.64,3.96-8.43,3.96v1.63h52.64v-1.63c-1.61,0-3.34-.31-5.18-.92ZM928.88,145.35c-8.78,10.32-23.62,12.94-34.07,14.01-2.56.26-5.12.47-7.69.68-5.24.43-10.67.87-15.96,1.78-7.63,1.32-13.47,4.25-18.39,9.21-1.22,1.24-2.39,2.56-3.5,3.97l43.28-142.8,36.33,113.15ZM515.21,145.35c-8.78,10.32-23.62,12.94-34.07,14.01-2.56.26-5.12.47-7.69.68-5.24.43-10.67.87-15.96,1.78-7.63,1.32-13.47,4.25-18.39,9.21-1.22,1.24-2.39,2.56-3.5,3.96l43.28-142.79,36.33,113.15ZM138.18,145.35c-8.78,10.32-23.62,12.94-34.07,14.01-2.56.26-5.12.47-7.69.68-5.24.43-10.67.87-15.96,1.78-7.63,1.32-13.47,4.25-18.39,9.21-1.22,1.24-2.39,2.56-3.5,3.97L101.85,32.19l36.33,113.15Z"/>
</svg>