<?xml version="1.0" encoding="UTF-8"?>
<svg id="Capa_1" data-name="Capa 1" xmlns="http://www.w3.org/2000/svg" viewBox="0 0 1080 1080">
  <defs>
    <style>
      .cls-1 {
        fill: #f3f3e9;
      }

      .cls-2 {
        fill: #83482c;
      }
    </style>
  </defs>
  <rect class="cls-1" x="0" y="0" width="1080" height="1080"/>
  <g>
    <g>
      <path class="cls-2" d="M851.48,609.79c0-6.32,4.72-11.35,10.58-11.35s10.67,5.03,10.67,11.35-4.72,11.25-10.67,11.25-10.58-4.94-10.58-11.25ZM869.66,609.79c0-4.32-3.43-7.73-7.61-7.73s-7.51,3.4-7.51,7.73,3.37,7.64,7.51,7.64,7.61-3.34,7.61-7.64Z"/>
      <path class="cls-2" d="M852.09,569.43h20.03v3.04l-13.89,11.56v.03h13.89v3.43h-20.03v-3.04l13.89-11.56v-.03h-13.89v-3.43Z"/>
      <path class="cls-2" d="M852.09,553.23h16.96v-12.3h3.07v15.73h-20.03v-3.43Z"/>
      <path class="cls-2" d="M872.12,530.99h-20.03v-3.43h20.03v3.43Z"/>
      <path class="cls-2" d="M852.09,496.74h20.03v3.04l-13.89,11.56v.03h13.89v3.43h-20.03v-3.04l13.89-11.56v-.03h-13.89v-3.43Z"/>
      <path class="cls-2" d="M863.19,472.84v7.7h5.86v-13.55h3.07v16.99h-20.03v-16.25h3.07v12.82h4.97v-7.7h3.07Z"/>
    </g>
    <path class="cls-2" d="M826.03,618.45c-5.03-1.55-8.55-5.15-10.49-10.69l-42.9-134.12c-1.28-3.41-3.8-5.14-7.49-5.14h-17.04v1.02c4.42,0,8.55,2.49,12.26,7.4l-38.01,124.84c-1.17,4.43-3.35,8.27-6.49,11.41-2.18,2.34-4.5,3.97-6.92,4.9-.89.34-1.89.34-2.74-.09-1.13-.57-2.15-1.37-3.04-2.39h0c-1.78-2.03-2.68-4.41-2.68-7.08v-128.28c0-2.79,1.03-5.34,3.07-7.57,2.03-2.22,4.46-3.34,7.24-3.34v-1.02h-22.1s-1.26.1-1.26.1h0c-8.86.76-14.72,6.94-18.11,12.06-6.07,9.17-9.09,20.22-11.45,29.85-2.83,11.54-4.86,23.45-6.82,34.97l-.9,5.24c-1.99,11.64-4.05,23.68-7.14,35.26-1.79,6.72-3.64,12.13-5.81,17.02-.29.66-.62,1.33-.98,2.04l-42.81-129.38c-1.68-4.75-5.01-7.16-9.9-7.16h-16.84v.51h0v.51c1.39,0,2.91.33,4.52.97,1.62.65,3.16,1.57,4.58,2.73,1.43,1.17,2.75,2.56,3.92,4.12,1.14,1.52,1.98,3.13,2.5,4.78v119.78c0,2.06-.43,4.15-1.27,6.22-.85,2.09-1.97,4-3.33,5.68-1.35,1.67-2.98,3.01-4.85,3.98-1.21.63-2.51,1.05-3.87,1.27-.43.07-.87.07-1.3-.02-.47-.09-.95-.22-1.44-.38-5.03-1.55-8.55-5.15-10.49-10.69l-42.9-134.12c-1.28-3.41-3.8-5.14-7.49-5.14h-17.04v.51h0,0v.51c4.42,0,8.55,2.49,12.26,7.4l-38.01,124.84c-1.17,4.43-3.35,8.27-6.49,11.41-2.54,2.72-5.27,4.5-8.13,5.31-1.22.35-2.5.31-3.68-.14-1.59-.61-3.25-1.65-4.98-3.11-2.98-2.52-5.34-5.43-7.03-8.66v-121.14c0-3.99,1.57-7.72,4.67-11.08,3.09-3.35,6.67-5.05,10.65-5.05v-.51h0,0v-.51h-33.07v1.02c3.97,0,7.59,1.76,10.75,5.24,3.17,3.5,4.78,7.29,4.78,11.28v117.93l-74.01-130.22c-2.1-3.49-5.14-5.26-9.06-5.26h-16.84v1.02c2.67,0,5.56,1.24,8.6,3.69,3.03,2.45,5.36,5.33,6.93,8.54v120.35c0,6.72-2.95,11.83-8.76,15.19-1.51.84-3,1.4-4.45,1.7-.6.12-1.22.13-1.82,0-.4-.09-.81-.2-1.23-.34-5.03-1.55-8.55-5.15-10.49-10.69l-42.9-134.12c-1.28-3.41-3.8-5.14-7.49-5.14h-17.04v1.02c4.42,0,8.55,2.49,12.26,7.4l-38.01,124.84c-1.17,4.43-3.35,8.27-6.49,11.41-3.63,3.88-7.61,5.85-11.85,5.85v1.02h33.07v-.51h0v-.51c-2.02,0-4.15-.81-6.31-2.41-2.21-1.62-4.05-3.63-5.46-5.93-.76-1.52-1.15-3.13-1.15-4.78,0-1.04.13-2.14.38-3.26l6.59-21.75c1.4-4.25,3.85-8.3,6.87-11.4,1.86-1.91,3.58-3.16,5.41-3.93,2.24-.95,4.71-1.35,6.86-1.66,2.67-.38,5.43-.61,8.1-.83,6.34-.53,12.9-1.07,18.95-3.71,3.08-1.34,5.7-3.12,7.83-5.29l17.78,55.39c.25.89.38,1.72.38,2.47,0,1.35-.61,2.91-1.81,4.62-1.18,1.68-2.91,2.49-5.3,2.49v1.02h63.63v-.51h0,0v-.51c-4.1,0-7.74-1.89-10.83-5.63-3.11-3.76-4.69-7.77-4.69-11.9v-116.93l75.19,131.78c1.15,2.46,3.2,3.7,6.07,3.7h48.36v-1.02c-2.02,0-4.15-.81-6.31-2.41-2.21-1.62-4.05-3.63-5.46-5.93-.76-1.52-1.15-3.13-1.15-4.78,0-1.04.13-2.14.38-3.26l6.59-21.75c1.4-4.25,3.85-8.3,6.87-11.4,1.86-1.91,3.58-3.16,5.41-3.93,2.24-.95,4.71-1.35,6.86-1.66,2.67-.38,5.43-.61,8.1-.83,6.34-.53,12.9-1.07,18.95-3.71,3.07-1.34,5.7-3.12,7.83-5.29l17.78,55.39c.25.89.38,1.72.38,2.47,0,1.35-.61,2.91-1.81,4.62-1.18,1.68-2.91,2.49-5.3,2.49v.51h0,0v.51h33.07s30.36,0,30.36,0v-1.02c-2.05,0-4.02-.52-5.87-1.54-1.87-1.03-3.51-2.37-4.87-3.99-1.36-1.62-2.48-3.53-3.32-5.67-.84-2.13-1.27-4.26-1.27-6.33v-113.27l41.9,127.06c.03.09.1.3.18.54-.56.33-1.09.6-1.61.84-1.54.71-4.81,1.78-4.84,1.79l-.46.15.57,2.08.49-.14c6.6-1.82,11.67-5.3,15.08-10.32,3.64-5.36,5.8-11.75,7.71-17.83,3.76-12.01,5.98-24.65,7.93-35.81.55-3.13,1.08-6.26,1.62-9.39,1.64-9.61,3.33-19.55,5.42-29.24,2.31-10.69,5.01-21.97,10.32-32.08,4.72-8.97,10.59-14.06,17.46-15.12.49-.07,1.02-.13,1.63-.16l.2,137.91c0,2.79-1.03,5.26-3.06,7.36-2.03,2.09-4.47,3.15-7.25,3.15v.51h0v.51h26.29s33.07,0,33.07,0v-.51h0v-.51c-2.02,0-4.15-.81-6.31-2.41-2.21-1.62-4.05-3.63-5.46-5.93-.76-1.52-1.15-3.13-1.15-4.78,0-1.04.13-2.14.38-3.26l6.59-21.75c1.4-4.25,3.85-8.3,6.87-11.4,1.86-1.91,3.58-3.16,5.41-3.93,2.24-.95,4.71-1.35,6.86-1.66,2.67-.38,5.43-.61,8.1-.83,6.34-.53,12.9-1.07,18.95-3.71,3.07-1.34,5.7-3.12,7.83-5.29l17.78,55.39c.25.89.38,1.72.38,2.47,0,1.35-.61,2.91-1.81,4.62-1.18,1.68-2.91,2.49-5.3,2.49v1.02h33.07v-1.02c-1.01,0-2.1-.19-3.26-.58ZM784.38,551.63c-5.52,6.49-14.84,8.13-21.4,8.8-1.61.16-3.22.3-4.83.43-3.29.27-6.7.54-10.03,1.12-4.79.83-8.46,2.67-11.55,5.79-.77.78-1.5,1.61-2.2,2.49l27.19-89.71,22.82,71.09ZM524.49,551.63c-5.52,6.49-14.84,8.13-21.4,8.8-1.61.16-3.22.3-4.83.43-3.29.27-6.7.54-10.03,1.12-4.79.83-8.46,2.67-11.55,5.79-.77.78-1.5,1.61-2.2,2.49l27.19-89.71,22.82,71.09ZM287.63,551.63c-5.52,6.49-14.84,8.13-21.4,8.8-1.61.16-3.22.3-4.83.43-3.29.27-6.7.54-10.03,1.12-4.79.83-8.46,2.67-11.55,5.79-.77.78-1.5,1.61-2.2,2.49l27.19-89.71,22.82,71.09Z"/>
  </g>
</svg>