<?xml version="1.0" encoding="UTF-8"?>
<svg id="Capa_1" data-name="Capa 1" xmlns="http://www.w3.org/2000/svg" viewBox="0 0 1080 268.1">
  <defs>
    <style>
      .cls-1 {
        fill: #f3f3e9;
      }
    </style>
  </defs>
  <g>
    <path class="cls-1" d="M1034.62,239.7c0-10.06,7.52-18.07,16.85-18.07s17,8.01,17,18.07-7.52,17.92-17,17.92-16.85-7.86-16.85-17.92ZM1063.58,239.7c0-6.89-5.47-12.31-12.11-12.31s-11.96,5.42-11.96,12.31,5.37,12.16,11.96,12.16,12.11-5.32,12.11-12.16Z"/>
    <path class="cls-1" d="M1035.59,175.42h31.89v4.83l-22.12,18.41v.05h22.12v5.47h-31.89v-4.84l22.12-18.41v-.05h-22.12v-5.47Z"/>
    <path class="cls-1" d="M1035.59,149.63h27.01v-19.58h4.88v25.05h-31.89v-5.47Z"/>
    <path class="cls-1" d="M1067.48,114.22h-31.89v-5.47h31.89v5.47Z"/>
    <path class="cls-1" d="M1035.59,59.67h31.89v4.83l-22.12,18.41v.05h22.12v5.47h-31.89v-4.83l22.12-18.41v-.05h-22.12v-5.47Z"/>
    <path class="cls-1" d="M1053.27,21.62v12.26h9.33V12.29h4.88v27.05h-31.89V13.46h4.88v20.41h7.91v-12.26h4.88Z"/>
  </g>
  <path class="cls-1" d="M994.09,253.48c-8-2.46-13.62-8.2-16.7-17.03l-68.32-213.58c-2.04-5.43-6.05-8.19-11.93-8.19h-27.13v1.63c7.04,0,13.61,3.97,19.53,11.79l-60.53,198.81c-1.87,7.06-5.34,13.17-10.34,18.17-3.47,3.72-7.16,6.32-11.02,7.81-1.41.55-3.01.53-4.36-.15-1.8-.91-3.42-2.18-4.84-3.81h0c-2.83-3.23-4.27-7.02-4.27-11.27V33.38c0-4.45,1.65-8.51,4.89-12.06,3.23-3.53,7.11-5.32,11.53-5.32v-1.63h-35.19s-2.01.16-2.01.16h0c-14.1,1.21-23.45,11.05-28.84,19.2-9.66,14.61-14.48,32.19-18.24,47.53-4.5,18.38-7.74,37.35-10.86,55.69l-1.43,8.35c-3.17,18.54-6.45,37.71-11.36,56.15-2.85,10.71-5.79,19.32-9.25,27.11-.46,1.04-.98,2.12-1.56,3.25l-68.17-206.04c-2.67-7.56-7.98-11.4-15.77-11.4h-26.81v.81h0v.81c2.22,0,4.64.52,7.2,1.54,2.57,1.03,5.03,2.49,7.29,4.34,2.28,1.87,4.38,4.08,6.25,6.56,1.82,2.42,3.16,4.98,3.99,7.62v190.75c0,3.28-.68,6.62-2.01,9.91-1.36,3.33-3.14,6.38-5.31,9.05-2.15,2.66-4.75,4.79-7.72,6.33-1.93,1-4,1.67-6.16,2.02-.69.11-1.39.1-2.07-.03-.75-.15-1.51-.35-2.3-.61-8-2.46-13.62-8.2-16.7-17.03L495.22,22.88c-2.04-5.43-6.05-8.19-11.93-8.19h-27.13v.81h0,0v.81c7.04,0,13.61,3.97,19.53,11.79l-60.53,198.81c-1.87,7.06-5.34,13.17-10.34,18.17-4.05,4.34-8.39,7.16-12.95,8.46-1.94.55-3.98.5-5.86-.23-2.53-.98-5.18-2.62-7.92-4.95-4.74-4.02-8.51-8.65-11.2-13.78V41.68c0-6.35,2.5-12.29,7.44-17.64,4.92-5.33,10.63-8.04,16.96-8.04v-.81h0,0v-.81h-52.66v1.63c6.32,0,12.08,2.81,17.11,8.35,5.05,5.57,7.61,11.61,7.61,17.97v187.8L245.46,22.75c-3.34-5.56-8.19-8.37-14.42-8.37h-26.81v1.63c4.25,0,8.86,1.98,13.69,5.88,4.83,3.91,8.54,8.48,11.03,13.6v191.65c0,10.7-4.69,18.84-13.95,24.19-2.4,1.33-4.77,2.23-7.09,2.7-.96.19-1.94.21-2.9,0-.64-.14-1.29-.32-1.96-.54-8-2.46-13.62-8.2-16.7-17.03L118.03,22.88c-2.04-5.43-6.05-8.19-11.93-8.19h-27.13v1.63c7.04,0,13.61,3.97,19.53,11.79l-60.53,198.81c-1.87,7.06-5.34,13.17-10.34,18.17-5.77,6.18-12.12,9.32-18.88,9.32v1.63h52.67v-.81h0v-.81c-3.22,0-6.6-1.29-10.05-3.83-3.51-2.58-6.45-5.78-8.69-9.44-1.21-2.43-1.83-4.99-1.83-7.61,0-1.65.21-3.41.6-5.19l10.5-34.64c2.24-6.77,6.12-13.22,10.94-18.16,2.97-3.04,5.7-5.03,8.62-6.26,3.56-1.51,7.5-2.16,10.92-2.64,4.26-.61,8.65-.98,12.9-1.33,10.1-.84,20.54-1.71,30.17-5.9,4.9-2.13,9.08-4.96,12.46-8.43l28.32,88.2c.4,1.42.61,2.74.61,3.93,0,2.16-.97,4.63-2.88,7.35-1.88,2.67-4.64,3.96-8.43,3.96v1.63h101.32v-.81h0,0v-.81c-6.53,0-12.33-3.01-17.25-8.96-4.96-5.99-7.47-12.37-7.47-18.95V40.28l119.74,209.86c1.84,3.91,5.09,5.89,9.67,5.89h77.02v-1.63c-3.22,0-6.6-1.29-10.05-3.83-3.51-2.58-6.45-5.78-8.69-9.44-1.21-2.43-1.83-4.99-1.83-7.61,0-1.65.21-3.41.6-5.19l10.5-34.64c2.24-6.77,6.13-13.22,10.95-18.16,2.96-3.04,5.7-5.03,8.62-6.26,3.56-1.51,7.5-2.16,10.92-2.64,4.26-.61,8.65-.98,12.91-1.33,10.1-.84,20.53-1.71,30.17-5.9,4.9-2.13,9.08-4.96,12.46-8.43l28.32,88.2c.4,1.42.61,2.74.61,3.93,0,2.16-.97,4.63-2.88,7.35-1.88,2.67-4.64,3.96-8.43,3.96v.81h0,0v.81h52.66s48.34,0,48.34,0v-1.63c-3.26,0-6.4-.82-9.34-2.45-2.98-1.64-5.59-3.78-7.75-6.35-2.17-2.58-3.95-5.62-5.29-9.03-1.34-3.39-2.02-6.78-2.02-10.08V46.11l66.72,202.34c.05.15.16.48.29.86-.9.52-1.74.96-2.56,1.34-2.45,1.13-7.66,2.83-7.71,2.84l-.74.24.92,3.32.78-.22c10.51-2.9,18.59-8.43,24.02-16.44,5.79-8.54,9.24-18.7,12.27-28.39,5.99-19.12,9.52-39.26,12.63-57.03.87-4.98,1.72-9.97,2.57-14.96,2.61-15.31,5.31-31.13,8.64-46.56,3.68-17.02,7.98-34.99,16.43-51.08,7.51-14.29,16.87-22.38,27.81-24.07.78-.12,1.62-.2,2.6-.26l.32,219.61c0,4.44-1.64,8.38-4.88,11.72-3.23,3.33-7.12,5.02-11.55,5.02v.81h0v.81h41.86s52.67,0,52.67,0v-.81h0v-.81c-3.22,0-6.6-1.29-10.05-3.83-3.51-2.58-6.45-5.78-8.69-9.44-1.21-2.43-1.83-4.99-1.83-7.61,0-1.65.21-3.41.6-5.19l10.5-34.64c2.24-6.77,6.13-13.22,10.95-18.16,2.96-3.04,5.7-5.03,8.62-6.26,3.56-1.51,7.5-2.16,10.92-2.64,4.26-.61,8.65-.98,12.91-1.33,10.1-.84,20.53-1.71,30.17-5.9,4.9-2.13,9.08-4.96,12.46-8.43l28.32,88.2c.4,1.42.61,2.74.61,3.93,0,2.16-.97,4.63-2.88,7.35-1.88,2.67-4.64,3.96-8.43,3.96v1.63h52.66v-1.63c-1.61,0-3.34-.31-5.18-.92ZM927.76,147.08c-8.78,10.33-23.63,12.94-34.08,14.01-2.56.26-5.12.47-7.69.68-5.25.43-10.67.87-15.97,1.78-7.63,1.32-13.48,4.25-18.39,9.22-1.23,1.24-2.39,2.56-3.5,3.97l43.3-142.86,36.34,113.2ZM513.91,147.08c-8.78,10.33-23.63,12.94-34.08,14.01-2.56.26-5.12.47-7.69.68-5.25.43-10.67.87-15.97,1.78-7.63,1.32-13.48,4.25-18.39,9.22-1.22,1.24-2.39,2.56-3.5,3.97l43.3-142.86,36.34,113.2ZM136.71,147.08c-8.78,10.33-23.63,12.94-34.08,14.01-2.56.26-5.12.47-7.69.68-5.25.43-10.67.87-15.97,1.78-7.63,1.32-13.48,4.25-18.39,9.22-1.23,1.24-2.39,2.56-3.5,3.97L100.37,33.88l36.34,113.2Z"/>
</svg>