<?xml version="1.0" encoding="UTF-8"?>
<svg id="Capa_1" data-name="Capa 1" xmlns="http://www.w3.org/2000/svg" viewBox="0 0 1080 1080">
  <defs>
    <style>
      .cls-1 {
        fill: #553026;
      }

      .cls-2 {
        fill: #f3f3e9;
      }
    </style>
  </defs>
  <rect class="cls-1" width="1080" height="1080"/>
  <g>
    <g>
      <path class="cls-2" d="M870.97,615.25h-19.97v-11.01c0-2.66.73-4.5,2.11-5.78,1.07-1.01,2.48-1.59,4.01-1.59,2.69,0,4.74,1.77,5.72,4.4l8.14-4.77v3.95l-7.68,4.28v7.1h7.68v3.43ZM854.06,611.82h6.18s0-8.2,0-8.2c0-1.8-1.41-3.33-3.12-3.33-.77,0-1.44.31-1.99.83-.98.95-1.07,2.05-1.07,3.12v7.59Z"/>
      <path class="cls-2" d="M870.97,585.48h-19.97v-3.43h19.97v3.43Z"/>
      <path class="cls-2" d="M851,571.87v-19.12h3.06v7.83h16.91v3.43h-16.91s0,7.86,0,7.86h-3.06Z"/>
      <path class="cls-2" d="M851,525.25h12.88c4.92,0,7.71,3.79,7.71,8.87s-2.78,8.84-7.71,8.84h-12.88v-3.43h12.88c3,0,4.65-2.39,4.65-5.41s-1.65-5.44-4.65-5.44h-12.88v-3.43Z"/>
      <path class="cls-2" d="M851,506.77v-3.12l19.97-9.27v3.76l-5.38,2.42v9.51l5.38,2.39v3.58l-19.97-9.27ZM862.84,508.85v-7.07l-7.74,3.43v.18l7.74,3.46Z"/>
      <path class="cls-2" d="M851,480.95h16.91s0-12.27,0-12.27h3.06v15.69h-19.97v-3.43Z"/>
    </g>
    <path class="cls-2" d="M825.01,614.43c-5.01-1.54-8.53-5.13-10.46-10.66l-42.79-133.77c-1.28-3.4-3.79-5.13-7.47-5.13h-16.99v1.02c4.41,0,8.52,2.49,12.23,7.39l-37.91,124.52c-1.17,4.42-3.35,8.25-6.48,11.38-2.18,2.33-4.49,3.96-6.9,4.89-.89.34-1.89.33-2.73-.09-1.13-.57-2.14-1.36-3.03-2.38h0c-1.77-2.02-2.67-4.4-2.67-7.06v-127.95c0-2.79,1.03-5.33,3.07-7.55,2.02-2.21,4.45-3.33,7.22-3.33v-1.02h-22.04s-1.26.1-1.26.1h0c-8.83.76-14.69,6.92-18.06,12.02-6.05,9.15-9.07,20.16-11.42,29.77-2.82,11.51-4.85,23.39-6.8,34.88l-.89,5.23c-1.98,11.61-4.04,23.62-7.12,35.17-1.79,6.71-3.63,12.1-5.79,16.98-.29.65-.61,1.33-.98,2.04l-42.7-129.05c-1.67-4.74-5-7.14-9.88-7.14h-16.79v.51h0v.51c1.39,0,2.91.32,4.51.96,1.61.65,3.15,1.56,4.57,2.72,1.43,1.17,2.74,2.55,3.91,4.11,1.14,1.52,1.98,3.12,2.5,4.77v119.48c0,2.06-.42,4.14-1.26,6.21-.85,2.09-1.97,3.99-3.32,5.67-1.35,1.67-2.97,3-4.84,3.97-1.21.63-2.5,1.05-3.86,1.27-.43.07-.87.07-1.3-.02-.47-.09-.95-.22-1.44-.38-5.01-1.54-8.53-5.13-10.46-10.66l-42.79-133.77c-1.28-3.4-3.79-5.13-7.47-5.13h-16.99v.51h0,0v.51c4.41,0,8.52,2.49,12.23,7.39l-37.91,124.52c-1.17,4.42-3.35,8.25-6.48,11.38-2.54,2.72-5.26,4.48-8.11,5.3-1.21.35-2.49.31-3.67-.14-1.58-.61-3.24-1.64-4.96-3.1-2.97-2.52-5.33-5.42-7.02-8.63v-120.83c0-3.98,1.57-7.7,4.66-11.05,3.08-3.34,6.66-5.03,10.62-5.03v-.51h0,0v-.51h-32.99v1.02c3.96,0,7.57,1.76,10.72,5.23,3.16,3.49,4.77,7.27,4.77,11.25v117.63l-73.82-129.88c-2.09-3.48-5.13-5.25-9.03-5.25h-16.79v1.02c2.66,0,5.55,1.24,8.58,3.69,3.03,2.45,5.35,5.31,6.91,8.52v120.04c0,6.7-2.94,11.8-8.74,15.15-1.5.84-2.99,1.4-4.44,1.69-.6.12-1.21.13-1.81,0-.4-.09-.81-.2-1.23-.34-5.01-1.54-8.53-5.13-10.46-10.66l-42.79-133.77c-1.28-3.4-3.79-5.13-7.47-5.13h-16.99v1.02c4.41,0,8.52,2.49,12.23,7.39l-37.91,124.52c-1.17,4.42-3.35,8.25-6.48,11.38-3.62,3.87-7.59,5.84-11.82,5.84v1.02h32.99v-.51h0v-.51c-2.02,0-4.13-.81-6.3-2.4-2.2-1.62-4.04-3.62-5.44-5.91-.76-1.52-1.15-3.13-1.15-4.77,0-1.03.13-2.14.38-3.25l6.58-21.7c1.4-4.24,3.84-8.28,6.85-11.37,1.86-1.9,3.57-3.15,5.4-3.92,2.23-.95,4.7-1.35,6.84-1.66,2.67-.38,5.42-.61,8.08-.83,6.32-.53,12.86-1.07,18.9-3.7,3.07-1.34,5.69-3.11,7.81-5.28l17.74,55.24c.25.89.38,1.72.38,2.46,0,1.35-.61,2.9-1.81,4.6-1.18,1.67-2.91,2.48-5.28,2.48v1.02h63.46v-.51h0,0v-.51c-4.09,0-7.72-1.89-10.8-5.61-3.11-3.75-4.68-7.75-4.68-11.87v-116.63l75,131.44c1.15,2.45,3.19,3.69,6.06,3.69h48.24v-1.02c-2.02,0-4.13-.81-6.3-2.4-2.2-1.62-4.04-3.62-5.44-5.91-.76-1.52-1.15-3.13-1.15-4.77,0-1.03.13-2.14.38-3.25l6.57-21.69c1.4-4.24,3.84-8.28,6.86-11.37,1.86-1.9,3.57-3.15,5.4-3.92,2.23-.95,4.7-1.35,6.84-1.66,2.67-.38,5.42-.61,8.08-.83,6.32-.53,12.86-1.07,18.9-3.7,3.07-1.33,5.69-3.11,7.81-5.28l17.74,55.24c.25.89.38,1.72.38,2.46,0,1.35-.61,2.9-1.81,4.6-1.18,1.67-2.91,2.48-5.28,2.48v.51h0,0v.51h32.99s30.28,0,30.28,0v-1.02c-2.04,0-4.01-.52-5.85-1.54-1.87-1.03-3.5-2.37-4.85-3.98-1.36-1.62-2.47-3.52-3.31-5.66-.84-2.12-1.26-4.25-1.26-6.31v-112.98l41.79,126.73c.03.09.1.3.18.54-.56.33-1.09.6-1.6.84-1.53.71-4.8,1.77-4.83,1.78l-.46.15.57,2.08.49-.14c6.58-1.82,11.64-5.28,15.04-10.3,3.63-5.35,5.79-11.72,7.69-17.78,3.75-11.97,5.96-24.59,7.91-35.72.55-3.12,1.08-6.25,1.61-9.37,1.63-9.59,3.32-19.5,5.41-29.16,2.3-10.66,5-21.92,10.29-31.99,4.7-8.95,10.56-14.02,17.42-15.08.49-.07,1.01-.13,1.63-.16l.2,137.55c0,2.78-1.03,5.25-3.05,7.34-2.03,2.09-4.46,3.14-7.23,3.14v.51h0v.51h26.22s32.99,0,32.99,0v-.51h0v-.51c-2.02,0-4.13-.81-6.3-2.4-2.2-1.62-4.04-3.62-5.44-5.91-.76-1.52-1.15-3.13-1.15-4.77,0-1.03.13-2.14.38-3.25l6.58-21.7c1.4-4.24,3.84-8.28,6.86-11.37,1.86-1.9,3.57-3.15,5.4-3.92,2.23-.95,4.7-1.35,6.84-1.66,2.67-.38,5.42-.61,8.08-.83,6.32-.53,12.86-1.07,18.9-3.7,3.07-1.33,5.69-3.11,7.81-5.28l17.74,55.24c.25.89.38,1.72.38,2.46,0,1.35-.61,2.9-1.81,4.6-1.18,1.67-2.91,2.48-5.28,2.48v1.02h32.99v-1.02c-1.01,0-2.1-.19-3.25-.58ZM783.46,547.79c-5.5,6.47-14.8,8.11-21.35,8.78-1.6.16-3.21.29-4.82.42-3.29.27-6.68.54-10,1.11-4.78.83-8.44,2.66-11.52,5.77-.77.78-1.5,1.61-2.19,2.49l27.12-89.48,22.76,70.9ZM524.24,547.79c-5.5,6.47-14.8,8.11-21.35,8.78-1.6.16-3.21.29-4.82.42-3.29.27-6.68.54-10,1.11-4.78.83-8.44,2.66-11.52,5.77-.77.78-1.5,1.61-2.19,2.48l27.12-89.48,22.76,70.9ZM287.99,547.79c-5.5,6.47-14.8,8.11-21.35,8.78-1.6.16-3.21.29-4.82.42-3.29.27-6.69.54-10,1.11-4.78.83-8.44,2.66-11.52,5.77-.77.77-1.5,1.61-2.19,2.49l27.12-89.48,22.76,70.9Z"/>
  </g>
</svg>