<?xml version="1.0" encoding="UTF-8"?>
<svg id="Capa_1" data-name="Capa 1" xmlns="http://www.w3.org/2000/svg" viewBox="0 0 1080 268.1">
  <defs>
    <style>
      .cls-1 {
        fill: #e9e7db;
      }
    </style>
  </defs>
  <g>
    <path class="cls-1" d="M1066.09,253.27h-31.76v-17.51c0-4.23,1.17-7.15,3.36-9.19,1.7-1.61,3.94-2.53,6.37-2.53,4.28,0,7.54,2.82,9.09,7l12.94-7.59v6.27l-12.21,6.81v11.28h12.21v5.45ZM1039.19,247.82h9.82s0-13.03,0-13.03c0-2.87-2.24-5.3-4.96-5.3-1.22,0-2.29.49-3.16,1.31-1.56,1.51-1.7,3.26-1.7,4.96v12.06Z"/>
    <path class="cls-1" d="M1066.09,205.94h-31.76v-5.45h31.76v5.45Z"/>
    <path class="cls-1" d="M1034.33,184.29v-30.4h4.86v12.45h26.9v5.45h-26.9s0,12.5,0,12.5h-4.86Z"/>
    <path class="cls-1" d="M1034.33,110.16h20.48c7.83,0,12.26,6.03,12.26,14.11s-4.43,14.06-12.26,14.06h-20.48v-5.45h20.48c4.77,0,7.39-3.79,7.39-8.61s-2.63-8.66-7.39-8.66h-20.48v-5.45Z"/>
    <path class="cls-1" d="M1034.33,80.78v-4.96l31.76-14.74v5.98l-8.56,3.84v15.13l8.56,3.79v5.69l-31.76-14.74ZM1053.15,84.09v-11.24l-12.31,5.45v.29l12.31,5.5Z"/>
    <path class="cls-1" d="M1034.33,39.72h26.9s0-19.5,0-19.5h4.86v24.95h-31.76v-5.45Z"/>
  </g>
  <path class="cls-1" d="M992.99,251.97c-7.97-2.45-13.57-8.16-16.63-16.96l-68.05-212.71c-2.03-5.41-6.03-8.16-11.88-8.16h-27.02v1.62c7.01,0,13.55,3.95,19.45,11.74l-60.29,198.01c-1.86,7.03-5.32,13.11-10.3,18.09-3.46,3.71-7.13,6.29-10.97,7.77-1.41.54-3,.53-4.35-.15-1.79-.91-3.41-2.17-4.82-3.79h0c-2.82-3.22-4.25-7-4.25-11.23V32.76c0-4.43,1.64-8.47,4.87-12.01,3.22-3.52,7.08-5.3,11.48-5.3v-1.62h-35.05s-2.01.16-2.01.16h0c-14.05,1.2-23.35,11.01-28.72,19.12-9.62,14.55-14.42,32.06-18.17,47.34-4.49,18.31-7.71,37.2-10.82,55.46l-1.42,8.32c-3.16,18.46-6.42,37.56-11.32,55.93-2.84,10.66-5.77,19.24-9.21,27-.46,1.04-.98,2.11-1.56,3.24l-67.9-205.2c-2.66-7.53-7.94-11.35-15.71-11.35h-26.7v.81h0v.81c2.21,0,4.62.52,7.17,1.53,2.56,1.03,5.01,2.48,7.26,4.33,2.27,1.86,4.36,4.06,6.22,6.53,1.81,2.41,3.15,4.96,3.97,7.59v189.98c0,3.27-.68,6.59-2.01,9.87-1.35,3.32-3.13,6.35-5.28,9.02-2.14,2.65-4.73,4.77-7.69,6.31-1.92,1-3.98,1.67-6.14,2.01-.68.11-1.39.1-2.07-.03-.74-.15-1.51-.34-2.29-.61-7.97-2.45-13.57-8.16-16.63-16.96L496.14,22.3c-2.03-5.41-6.03-8.16-11.88-8.16h-27.02v.81h0,0v.81c7.01,0,13.55,3.95,19.45,11.74l-60.29,198.01c-1.86,7.03-5.32,13.11-10.3,18.09-4.04,4.32-8.36,7.13-12.9,8.43-1.93.55-3.97.5-5.84-.22-2.52-.97-5.16-2.61-7.89-4.93-4.72-4-8.48-8.62-11.16-13.73V41.03c0-6.33,2.49-12.24,7.41-17.57,4.9-5.31,10.58-8,16.89-8v-.81h0,0v-.81h-52.45v1.62c6.3,0,12.03,2.8,17.04,8.32,5.03,5.54,7.58,11.56,7.58,17.89v187.04L247.39,22.17c-3.32-5.53-8.16-8.34-14.37-8.34h-26.7v1.62c4.23,0,8.82,1.97,13.64,5.86,4.81,3.89,8.5,8.45,10.98,13.54v190.87c0,10.66-4.67,18.76-13.9,24.09-2.39,1.33-4.75,2.22-7.07,2.69-.96.19-1.93.21-2.89,0-.63-.14-1.28-.31-1.95-.54-7.97-2.45-13.57-8.16-16.63-16.96L120.47,22.3c-2.03-5.41-6.03-8.16-11.88-8.16h-27.02v1.62c7.01,0,13.55,3.95,19.45,11.74l-60.29,198.01c-1.86,7.03-5.32,13.11-10.3,18.09-5.75,6.16-12.08,9.28-18.8,9.28v1.62h52.45v-.81h0v-.81c-3.2,0-6.57-1.28-10.01-3.82-3.5-2.57-6.42-5.75-8.66-9.41-1.21-2.42-1.82-4.97-1.82-7.58,0-1.64.21-3.4.6-5.17l10.46-34.5c2.23-6.74,6.1-13.16,10.9-18.08,2.95-3.03,5.68-5.01,8.58-6.24,3.55-1.5,7.47-2.15,10.88-2.63,4.24-.61,8.62-.97,12.85-1.32,10.06-.84,20.45-1.7,30.05-5.88,4.88-2.12,9.05-4.94,12.41-8.39l28.2,87.84c.4,1.41.6,2.73.6,3.91,0,2.15-.97,4.61-2.87,7.32-1.87,2.66-4.62,3.95-8.4,3.95v1.62h100.91v-.81h0,0v-.81c-6.5,0-12.28-3-17.18-8.92-4.94-5.97-7.44-12.32-7.44-18.88V39.63l119.26,209.01c1.83,3.89,5.07,5.87,9.63,5.87h76.71v-1.62c-3.2,0-6.57-1.28-10.01-3.82-3.5-2.57-6.42-5.75-8.66-9.41-1.21-2.42-1.82-4.97-1.82-7.58,0-1.64.21-3.4.6-5.17l10.45-34.5c2.23-6.74,6.1-13.16,10.9-18.08,2.95-3.03,5.68-5.01,8.58-6.24,3.55-1.5,7.47-2.15,10.87-2.63,4.24-.61,8.62-.97,12.85-1.32,10.05-.84,20.45-1.7,30.05-5.88,4.88-2.12,9.04-4.94,12.41-8.39l28.2,87.84c.4,1.41.6,2.73.6,3.91,0,2.15-.97,4.61-2.87,7.32-1.87,2.66-4.62,3.95-8.4,3.95v.81h0,0v.81h52.45s48.14,0,48.14,0v-1.62c-3.24,0-6.37-.82-9.31-2.44-2.97-1.64-5.57-3.77-7.72-6.33-2.16-2.57-3.93-5.6-5.27-9-1.33-3.38-2.01-6.75-2.01-10.04V45.44l66.45,201.52c.05.15.16.47.29.86-.89.52-1.73.96-2.55,1.34-2.44,1.13-7.63,2.82-7.68,2.83l-.74.24.91,3.3.78-.22c10.46-2.89,18.51-8.4,23.92-16.37,5.77-8.5,9.2-18.63,12.22-28.27,5.97-19.04,9.48-39.1,12.58-56.79.87-4.96,1.72-9.93,2.56-14.9,2.6-15.25,5.29-31.01,8.6-46.37,3.66-16.96,7.94-34.85,16.37-50.87,7.48-14.23,16.8-22.29,27.7-23.97.77-.12,1.61-.2,2.59-.26l.32,218.72c0,4.42-1.63,8.35-4.86,11.67-3.22,3.32-7.09,5-11.5,5v.81h0v.81h41.69s52.45,0,52.45,0v-.81h0v-.81c-3.2,0-6.57-1.28-10.01-3.82-3.5-2.57-6.42-5.75-8.66-9.41-1.21-2.42-1.82-4.97-1.82-7.58,0-1.64.21-3.4.6-5.17l10.46-34.5c2.23-6.74,6.1-13.16,10.9-18.08,2.95-3.03,5.68-5.01,8.58-6.24,3.55-1.5,7.47-2.15,10.87-2.63,4.24-.61,8.62-.97,12.85-1.32,10.05-.84,20.45-1.7,30.05-5.88,4.88-2.12,9.04-4.94,12.41-8.39l28.2,87.84c.4,1.41.6,2.73.6,3.91,0,2.15-.97,4.61-2.87,7.32-1.87,2.66-4.62,3.95-8.4,3.95v1.62h52.45v-1.62c-1.6,0-3.33-.31-5.16-.92ZM926.93,146c-8.75,10.29-23.54,12.89-33.95,13.96-2.55.26-5.1.47-7.66.68-5.23.42-10.63.86-15.91,1.77-7.6,1.32-13.42,4.23-18.32,9.18-1.22,1.23-2.38,2.55-3.49,3.95l43.12-142.28,36.2,112.75ZM514.75,146c-8.75,10.29-23.54,12.89-33.95,13.96-2.55.26-5.1.47-7.66.68-5.23.42-10.63.86-15.91,1.77-7.6,1.32-13.42,4.23-18.32,9.18-1.22,1.23-2.38,2.55-3.49,3.95l43.12-142.28,36.2,112.75ZM139.08,146c-8.75,10.29-23.53,12.89-33.94,13.96-2.55.26-5.1.47-7.66.68-5.23.42-10.63.86-15.91,1.77-7.6,1.32-13.42,4.23-18.32,9.18-1.22,1.23-2.38,2.55-3.49,3.95L102.88,33.26l36.2,112.75Z"/>
</svg>